<svg width="32" height="32" viewBox="0 0 32 32" fill="none" xmlns="http://www.w3.org/2000/svg">
<path d="M23.6667 9.39995C23.3467 9.34661 23.0134 9.3333 22.6667 9.3333H9.33336C8.96002 9.3333 8.60002 9.35996 8.25336 9.41329C8.44002 9.03996 8.70669 8.69334 9.02669 8.37334L13.36 4.02666C15.1867 2.21332 18.1467 2.21332 19.9734 4.02666L22.3067 6.3866C23.16 7.2266 23.6134 8.29328 23.6667 9.39995Z" fill="#442F24"/>
<path d="M6.66665 20C3.71998 20 1.33331 22.3867 1.33331 25.3333C1.33331 26.3333 1.61331 27.28 2.10665 28.08C3.02665 29.6267 4.71998 30.6667 6.66665 30.6667C8.61331 30.6667 10.3066 29.6267 11.2266 28.08C11.72 27.28 12 26.3333 12 25.3333C12 22.3867 9.61331 20 6.66665 20ZM8.65331 26.3066H7.66665V27.3467C7.66665 27.8933 7.21331 28.3467 6.66665 28.3467C6.11998 28.3467 5.66665 27.8933 5.66665 27.3467V26.3066H4.67998C4.13331 26.3066 3.67998 25.8533 3.67998 25.3066C3.67998 24.76 4.13331 24.3066 4.67998 24.3066H5.66665V23.36C5.66665 22.8134 6.11998 22.36 6.66665 22.36C7.21331 22.36 7.66665 22.8134 7.66665 23.36V24.3066H8.65331C9.19998 24.3066 9.65331 24.76 9.65331 25.3066C9.65331 25.8533 9.21331 26.3066 8.65331 26.3066Z" fill="#442F24"/>
<path opacity="0.4" d="M29.3334 16V22.6667C29.3334 26.6667 26.6667 29.3333 22.6667 29.3333H10.1734C10.5867 28.9867 10.9467 28.56 11.2267 28.08C11.72 27.28 12 26.3333 12 25.3333C12 22.3867 9.61335 20 6.66669 20C5.06669 20 3.64002 20.7067 2.66669 21.8133V16C2.66669 12.3733 4.85335 9.84001 8.25335 9.41334C8.60002 9.36001 8.96002 9.33334 9.33335 9.33334H22.6667C23.0134 9.33334 23.3467 9.34666 23.6667 9.39999C27.1067 9.79999 29.3334 12.3467 29.3334 16Z" fill="#442F24"/>
<path d="M29.3334 16.6667H25.3334C23.8667 16.6667 22.6667 17.8667 22.6667 19.3333C22.6667 20.8 23.8667 22 25.3334 22H29.3334" fill="#442F24"/>
</svg>
