<svg width="32" height="32" viewBox="0 0 32 32" fill="none" xmlns="http://www.w3.org/2000/svg">
<path opacity="0.4" d="M24 25.1467H22.9867C21.92 25.1467 20.9067 25.56 20.16 26.3067L17.88 28.56C16.84 29.5867 15.1467 29.5867 14.1067 28.56L11.8267 26.3067C11.08 25.56 10.0533 25.1467 9 25.1467H8C5.78667 25.1467 4 23.3734 4 21.1867V6.63998C4 4.45332 5.78667 2.68002 8 2.68002H24C26.2133 2.68002 28 4.45332 28 6.63998V21.1867C28 23.36 26.2133 25.1467 24 25.1467Z" fill="#2196F3"/>
<path d="M16 13.88C17.7158 13.88 19.1067 12.4891 19.1067 10.7733C19.1067 9.05758 17.7158 7.66666 16 7.66666C14.2842 7.66666 12.8933 9.05758 12.8933 10.7733C12.8933 12.4891 14.2842 13.88 16 13.88Z" fill="#2196F3"/>
<path d="M19.5733 20.08C20.6533 20.08 21.28 18.88 20.68 17.9866C19.7733 16.64 18.0133 15.7333 16 15.7333C13.9866 15.7333 12.2266 16.64 11.3199 17.9866C10.7199 18.88 11.3466 20.08 12.4266 20.08H19.5733Z" fill="#2196F3"/>
</svg>
