<svg width="32" height="32" viewBox="0 0 32 32" fill="none" xmlns="http://www.w3.org/2000/svg">
<path d="M16 2.66666C12.5067 2.66666 9.66666 5.50666 9.66666 8.99999C9.66666 12.4267 12.3467 15.2 15.84 15.32C15.9467 15.3067 16.0533 15.3067 16.1333 15.32C16.16 15.32 16.1733 15.32 16.2 15.32C16.2133 15.32 16.2133 15.32 16.2267 15.32C19.64 15.2 22.32 12.4267 22.3333 8.99999C22.3333 5.50666 19.4933 2.66666 16 2.66666Z" fill="#06B6D4"/>
<path opacity="0.4" d="M22.7733 18.88C19.0533 16.4 12.9867 16.4 9.24001 18.88C7.54668 20 6.61334 21.5333 6.61334 23.1733C6.61334 24.8133 7.54668 26.3333 9.22668 27.4533C11.0933 28.7067 13.5467 29.3333 16 29.3333C18.4533 29.3333 20.9067 28.7067 22.7733 27.4533C24.4533 26.32 25.3867 24.8 25.3867 23.1467C25.3733 21.52 24.4533 19.9867 22.7733 18.88Z" fill="#06B6D4"/>
<path d="M15.16 25.68C14.9467 25.68 14.7333 25.5867 14.5733 25.44L12.8933 23.76C12.5733 23.44 12.5733 22.9067 12.8933 22.5867C13.2133 22.2667 13.7467 22.2667 14.0667 22.5867L15.16 23.68L17.9333 20.9067C18.2533 20.5867 18.7867 20.5867 19.1067 20.9067C19.4267 21.2267 19.4267 21.76 19.1067 22.08L15.7467 25.44C15.5867 25.6 15.3733 25.68 15.16 25.68Z" fill="#06B6D4"/>
</svg>
