<svg width="22" height="22" viewBox="0 0 22 22" fill="none" xmlns="http://www.w3.org/2000/svg">
<path d="M19.712 15.1604V17.8483C19.713 18.0979 19.6619 18.3449 19.5619 18.5735C19.4619 18.8022 19.3153 19.0074 19.1314 19.1761C18.9475 19.3448 18.7305 19.4732 18.4941 19.5532C18.2577 19.6331 18.0072 19.6628 17.7587 19.6403C15.0016 19.3408 12.3531 18.3986 10.0262 16.8896C7.86135 15.514 6.02591 13.6785 4.65026 11.5136C3.136 9.17617 2.19365 6.51487 1.89955 3.74535C1.87715 3.49758 1.9066 3.24786 1.98601 3.01209C2.06542 2.77632 2.19305 2.55967 2.36077 2.37593C2.5285 2.19219 2.73265 2.04539 2.96022 1.94487C3.18779 1.84435 3.4338 1.79231 3.68258 1.79208H6.37057C6.8054 1.7878 7.22696 1.94178 7.55666 2.22532C7.88636 2.50886 8.1017 2.90262 8.16256 3.33319C8.27602 4.19341 8.48642 5.03803 8.78976 5.85095C8.91031 6.17164 8.9364 6.52018 8.86494 6.85525C8.79348 7.19032 8.62746 7.49789 8.38656 7.7415L7.24865 8.87941C8.52415 11.1226 10.3815 12.9799 12.6246 14.2554L13.7625 13.1175C14.0062 12.8766 14.3137 12.7106 14.6488 12.6391C14.9839 12.5676 15.3324 12.5937 15.6531 12.7143C16.466 13.0176 17.3106 13.228 18.1708 13.3415C18.6061 13.4029 19.0036 13.6221 19.2877 13.9575C19.5719 14.2928 19.7229 14.7209 19.712 15.1604Z" stroke="#14B8A6" stroke-width="1.79199" stroke-linecap="round" stroke-linejoin="round"/>
</svg>
