<svg width="22" height="22" viewBox="0 0 22 22" fill="none" xmlns="http://www.w3.org/2000/svg">
<g clip-path="url(#clip0_4_9276)">
<path d="M3.58398 1.79211V19.7121L5.37598 18.8161L7.16797 19.7121L8.95997 18.8161L10.752 19.7121L12.544 18.8161L14.3359 19.7121L16.1279 18.8161L17.9199 19.7121V1.79211L16.1279 2.68811L14.3359 1.79211L12.544 2.68811L10.752 1.79211L8.95997 2.68811L7.16797 1.79211L5.37598 2.68811L3.58398 1.79211Z" stroke="#3B82F6" stroke-width="1.79199" stroke-linecap="round" stroke-linejoin="round"/>
<path d="M14.3359 7.16809H8.95996C8.4847 7.16809 8.0289 7.35689 7.69283 7.69295C7.35677 8.02902 7.16797 8.48482 7.16797 8.96008C7.16797 9.43535 7.35677 9.89115 7.69283 10.2272C8.0289 10.5633 8.4847 10.7521 8.95996 10.7521H12.5439C13.0192 10.7521 13.475 10.9409 13.8111 11.2769C14.1471 11.613 14.3359 12.0688 14.3359 12.5441C14.3359 13.0193 14.1471 13.4751 13.8111 13.8112C13.475 14.1473 13.0192 14.3361 12.5439 14.3361H7.16797" stroke="#3B82F6" stroke-width="1.79199" stroke-linecap="round" stroke-linejoin="round"/>
<path d="M10.752 15.6801V5.8241" stroke="#3B82F6" stroke-width="1.79199" stroke-linecap="round" stroke-linejoin="round"/>
</g>
<defs>
<clipPath id="clip0_4_9276">
<rect width="21.5039" height="21.5039" fill="white"/>
</clipPath>
</defs>
</svg>
