<svg width="22" height="22" viewBox="0 0 22 22" fill="none" xmlns="http://www.w3.org/2000/svg">
<g clip-path="url(#clip0_4_9318)">
<path d="M10.752 6.27209V18.8161" stroke="#F59E0B" stroke-width="1.79199" stroke-linecap="round" stroke-linejoin="round"/>
<path d="M2.68799 16.1279C2.45036 16.1279 2.22246 16.0335 2.05442 15.8655C1.88639 15.6975 1.79199 15.4696 1.79199 15.2319V3.58399C1.79199 3.34635 1.88639 3.11845 2.05442 2.95042C2.22246 2.78239 2.45036 2.68799 2.68799 2.68799H7.16797C8.11851 2.68799 9.03011 3.06559 9.70224 3.73771C10.3744 4.40984 10.752 5.32144 10.752 6.27198C10.752 5.32144 11.1296 4.40984 11.8017 3.73771C12.4738 3.06559 13.3854 2.68799 14.3359 2.68799H18.8159C19.0536 2.68799 19.2815 2.78239 19.4495 2.95042C19.6175 3.11845 19.7119 3.34635 19.7119 3.58399V15.2319C19.7119 15.4696 19.6175 15.6975 19.4495 15.8655C19.2815 16.0335 19.0536 16.1279 18.8159 16.1279H13.44C12.7271 16.1279 12.0434 16.4111 11.5393 16.9152C11.0352 17.4193 10.752 18.103 10.752 18.8159C10.752 18.103 10.4688 17.4193 9.96467 16.9152C9.46057 16.4111 8.77687 16.1279 8.06397 16.1279H2.68799Z" stroke="#F59E0B" stroke-width="1.79199" stroke-linecap="round" stroke-linejoin="round"/>
</g>
<defs>
<clipPath id="clip0_4_9318">
<rect width="21.5039" height="21.5039" fill="white"/>
</clipPath>
</defs>
</svg>
