<svg width="22" height="22" viewBox="0 0 22 22" fill="none" xmlns="http://www.w3.org/2000/svg">
<path d="M17.9199 11.6479C17.9199 16.1279 14.7839 18.3679 11.0566 19.667C10.8614 19.7332 10.6494 19.73 10.4563 19.6581C6.71997 18.3679 3.58398 16.1279 3.58398 11.6479V5.37589C3.58398 5.13826 3.67838 4.91036 3.84642 4.74233C4.01445 4.5743 4.24235 4.4799 4.47998 4.4799C6.27197 4.4799 8.51197 3.4047 10.071 2.04279C10.2608 1.88061 10.5023 1.7915 10.752 1.7915C11.0016 1.7915 11.2431 1.88061 11.4329 2.04279C13.0009 3.41366 15.2319 4.4799 17.0239 4.4799C17.2616 4.4799 17.4895 4.5743 17.6575 4.74233C17.8255 4.91036 17.9199 5.13826 17.9199 5.37589V11.6479Z" stroke="#8B5CF6" stroke-width="1.79199" stroke-linecap="round" stroke-linejoin="round"/>
</svg>
