<svg width="22" height="22" viewBox="0 0 22 22" fill="none" xmlns="http://www.w3.org/2000/svg">
<path d="M14.3359 18.8159V17.0239C14.3359 16.0734 13.9584 15.1618 13.2862 14.4897C12.6141 13.8175 11.7025 13.4399 10.752 13.4399H5.37598C4.42545 13.4399 3.51385 13.8175 2.84172 14.4897C2.16959 15.1618 1.79199 16.0734 1.79199 17.0239V18.8159" stroke="#22C55E" stroke-width="1.79199" stroke-linecap="round" stroke-linejoin="round"/>
<path d="M8.064 9.85596C10.0434 9.85596 11.648 8.25136 11.648 6.27198C11.648 4.29259 10.0434 2.68799 8.064 2.68799C6.08462 2.68799 4.48001 4.29259 4.48001 6.27198C4.48001 8.25136 6.08462 9.85596 8.064 9.85596Z" stroke="#22C55E" stroke-width="1.79199" stroke-linecap="round" stroke-linejoin="round"/>
<path d="M19.7119 18.816V17.024C19.7114 16.2299 19.4471 15.4585 18.9605 14.8309C18.474 14.2033 17.7928 13.755 17.024 13.5565" stroke="#22C55E" stroke-width="1.79199" stroke-linecap="round" stroke-linejoin="round"/>
<path d="M14.336 2.80444C15.1069 3.00183 15.7902 3.45019 16.2782 4.07883C16.7661 4.70747 17.031 5.48063 17.031 6.27643C17.031 7.07223 16.7661 7.84539 16.2782 8.47403C15.7902 9.10267 15.1069 9.55103 14.336 9.74842" stroke="#22C55E" stroke-width="1.79199" stroke-linecap="round" stroke-linejoin="round"/>
</svg>
