<svg width="180" height="38" viewBox="0 0 180 38" fill="none" xmlns="http://www.w3.org/2000/svg">
<g clip-path="url(#clip0_4_3038)">
<path d="M82.5843 21.982V6.91103H77.9207V3.57523H91.0163V6.91103H86.4207V21.982H82.5843Z" fill="white"/>
<path d="M89.3266 21.982L95.5547 3.57523H100.643L106.871 21.982H102.694L101.459 18.2272H94.7139L93.4787 21.982H89.3266ZM95.7751 14.8914H100.401L97.5845 6.18456H98.6238L95.7751 14.8914Z" fill="white"/>
<path d="M106.424 21.982L112.65 3.57523H117.741L123.966 21.982H119.792L118.557 18.2272H111.812L110.577 21.982H106.424ZM112.873 14.8914H117.498L114.682 6.18456H115.719L112.873 14.8914Z" fill="white"/>
<path d="M124.88 21.982V3.57523H128.711V18.6462H136.493V21.982H124.88Z" fill="white"/>
<path d="M137.407 21.982V3.57523H141.236V21.982H137.407Z" fill="white"/>
<path d="M143.507 21.982V3.57523H147.216L154.108 12.7174H152.377L159.073 3.57523H162.779V21.982H158.951V7.80076L160.483 8.14631L153.392 17.2885H152.897L146.054 8.14631L147.338 7.80076V21.982H143.507Z" fill="white"/>
<path d="M163.694 21.982L169.723 12.7637L163.694 3.57253H168.091L172.934 10.9352H170.784L175.603 3.57253H180L173.998 12.7637L180 21.9793H175.6L170.782 14.5921L172.931 14.6166L168.088 21.9793L163.694 21.982Z" fill="#BF8546"/>
<path d="M82.0646 34.879V27.5326H86.8425V28.4196H83.0332V30.7459H86.6493V31.6329H83.0332V33.9865H86.8425V34.8735L82.0646 34.879Z" fill="#BF8546"/>
<path d="M89.9469 34.996C89.4734 35.0041 89.0073 34.8777 88.6028 34.6314C88.2054 34.3911 87.8802 34.048 87.6614 33.6383C87.4276 33.2058 87.3086 32.7205 87.3158 32.2289C87.3064 31.7327 87.4255 31.2425 87.6614 30.8059C87.8802 30.3969 88.2055 30.0547 88.6028 29.8155C89.0079 29.5705 89.4736 29.4441 89.9469 29.4509C90.3546 29.4406 90.7581 29.5342 91.1196 29.7229C91.4523 29.8993 91.7336 30.159 91.9359 30.4766L91.7862 30.7025V27.4211H92.714V34.879H91.8161V33.7444L91.9359 33.9022C91.7538 34.2515 91.4689 34.5364 91.1196 34.7185C90.7583 34.9082 90.3549 35.0037 89.9469 34.996ZM90.0258 34.109C90.3414 34.1143 90.652 34.0294 90.921 33.8641C91.1857 33.6987 91.4017 33.4658 91.5468 33.1894C91.7038 32.8939 91.7833 32.5634 91.7781 32.2289C91.7842 31.8908 91.7046 31.5566 91.5468 31.2575C91.4009 30.9817 91.1851 30.749 90.921 30.5827C90.652 30.4175 90.3414 30.3326 90.0258 30.3379C89.7104 30.3333 89.4004 30.4203 89.1334 30.5882C88.8706 30.7537 88.6551 30.9843 88.5076 31.2575C88.3528 31.5575 88.2752 31.8914 88.2817 32.2289C88.2773 32.5627 88.3549 32.8925 88.5076 33.1894C88.6507 33.4654 88.8648 33.6983 89.1279 33.8641C89.398 34.0292 89.7094 34.1141 90.0258 34.109Z" fill="#BF8546"/>
<path d="M95.6063 34.996C95.2442 35.0002 94.8879 34.9062 94.575 34.7239C94.2724 34.5499 94.0267 34.2919 93.8676 33.9811C93.6957 33.6445 93.6088 33.2708 93.6146 32.8928V29.5733H94.5315V32.7894C94.5261 33.0299 94.5823 33.2678 94.6948 33.4805C94.7998 33.6734 94.9561 33.8334 95.1464 33.943C95.35 34.0566 95.58 34.1139 95.813 34.109C96.0452 34.1137 96.2743 34.0564 96.4769 33.943C96.6727 33.8298 96.8307 33.6613 96.9313 33.4587C97.0434 33.2256 97.0984 32.9691 97.0919 32.7105V29.5679H98.0197V34.879H97.1218V33.8451L97.2687 33.9322C97.153 34.258 96.9293 34.5346 96.6348 34.7158C96.3256 34.9052 95.9688 35.0024 95.6063 34.996Z" fill="#BF8546"/>
<path d="M101.511 34.996C101.025 35.0055 100.546 34.8792 100.128 34.6314C99.7272 34.3923 99.3982 34.0491 99.1761 33.6383C98.9438 33.2013 98.8259 32.7127 98.8332 32.218C98.8242 31.7239 98.9422 31.2357 99.1761 30.8004C99.4 30.393 99.7288 30.053 100.128 29.8154C100.547 29.5688 101.025 29.4426 101.511 29.4508C101.845 29.4482 102.177 29.512 102.487 29.6386C102.78 29.7574 103.05 29.9268 103.285 30.1392C103.508 30.3428 103.681 30.5964 103.788 30.8793L102.972 31.2738C102.849 30.9996 102.65 30.7657 102.4 30.599C102.14 30.4193 101.83 30.3243 101.513 30.327C101.206 30.3231 100.903 30.4082 100.643 30.5718C100.383 30.7372 100.17 30.968 100.028 31.2412C99.871 31.5425 99.7924 31.8784 99.7992 32.218C99.7944 32.5521 99.8729 32.8823 100.028 33.1784C100.168 33.4548 100.38 33.688 100.643 33.8532C100.903 34.0169 101.206 34.1019 101.513 34.0981C101.83 34.1007 102.14 34.0057 102.4 33.826C102.654 33.6547 102.852 33.4137 102.972 33.1322L103.788 33.5458C103.679 33.8263 103.507 34.0778 103.285 34.2804C103.052 34.4963 102.782 34.6678 102.487 34.7865C102.179 34.9205 101.847 34.9918 101.511 34.996Z" fill="#BF8546"/>
<path d="M106.082 34.996C105.765 35.0028 105.45 34.9377 105.162 34.8055C104.907 34.6854 104.691 34.497 104.536 34.2613C104.383 34.0294 104.304 33.7559 104.31 33.4777C104.306 33.2125 104.369 32.9504 104.493 32.7159C104.626 32.4744 104.824 32.2747 105.064 32.1391C105.366 31.9658 105.699 31.8522 106.044 31.8044L108.013 31.4779V32.2479L106.25 32.5417C105.974 32.572 105.714 32.6859 105.505 32.8683C105.354 33.0232 105.271 33.2316 105.274 33.4478C105.274 33.5534 105.298 33.6574 105.346 33.7519C105.393 33.8463 105.461 33.9285 105.546 33.992C105.732 34.1395 105.964 34.2157 106.201 34.2069C106.506 34.2143 106.807 34.1411 107.075 33.9947C107.315 33.8579 107.515 33.6598 107.654 33.4206C107.797 33.1726 107.871 32.8906 107.867 32.6043V31.2439C107.871 31.1096 107.844 30.9761 107.789 30.8539C107.733 30.7316 107.65 30.6239 107.545 30.5392C107.308 30.3488 107.009 30.252 106.705 30.2671C106.416 30.2599 106.131 30.3405 105.888 30.4984C105.659 30.6482 105.479 30.8633 105.371 31.116L104.585 30.7215C104.691 30.4697 104.853 30.2455 105.059 30.0657C105.282 29.8682 105.539 29.7124 105.818 29.6059C106.107 29.4947 106.414 29.4384 106.724 29.4399C107.1 29.4295 107.473 29.5088 107.812 29.6712C108.107 29.8144 108.357 30.0355 108.536 30.3106C108.717 30.5948 108.812 30.9258 108.808 31.2629V34.8681H107.91V33.8614L108.079 33.9212C107.964 34.1304 107.81 34.3153 107.624 34.4654C107.425 34.6284 107.198 34.7555 106.955 34.8409C106.675 34.9439 106.38 34.9964 106.082 34.996Z" fill="#BF8546"/>
<path d="M111.856 34.9388C111.636 34.9526 111.416 34.9202 111.21 34.8438C111.004 34.7674 110.816 34.6487 110.658 34.4953C110.361 34.1488 110.21 33.6996 110.239 33.2437V30.4494H109.273V29.5705H109.472C109.574 29.576 109.676 29.5601 109.772 29.5241C109.867 29.488 109.954 29.4325 110.027 29.361C110.098 29.2842 110.152 29.1941 110.188 29.0961C110.223 28.998 110.239 28.8938 110.234 28.7897V28.3543H111.151V29.576H112.343V30.4494H111.151V33.2165C111.147 33.3749 111.176 33.5323 111.235 33.6791C111.29 33.8095 111.385 33.9185 111.507 33.9893C111.668 34.0725 111.849 34.1119 112.03 34.1035C112.087 34.1069 112.144 34.1069 112.201 34.1035L112.394 34.0845V34.9008C112.304 34.92 112.214 34.9345 112.122 34.9443C112.016 34.9334 111.932 34.9388 111.856 34.9388Z" fill="#BF8546"/>
<path d="M113.205 28.7216V27.5381H114.122V28.7216H113.205ZM113.205 34.879V29.5678H114.122V34.879H113.205Z" fill="#BF8546"/>
<path d="M117.667 34.996C117.181 35.0025 116.702 34.8785 116.28 34.6369C115.869 34.4009 115.528 34.0588 115.295 33.6465C115.047 33.2119 114.921 32.7183 114.93 32.218C114.921 31.7219 115.045 31.2324 115.289 30.8004C115.523 30.3916 115.861 30.0519 116.269 29.8155C116.694 29.5701 117.177 29.4441 117.667 29.4509C118.155 29.4439 118.635 29.5679 119.058 29.81C119.465 30.0437 119.804 30.3818 120.037 30.7895C120.282 31.2251 120.406 31.7183 120.396 32.218C120.406 32.7215 120.276 33.2179 120.021 33.6519C119.781 34.06 119.44 34.3993 119.03 34.6369C118.617 34.8777 118.146 35.0018 117.667 34.996ZM117.667 34.109C117.982 34.1129 118.291 34.028 118.56 33.8641C118.827 33.6982 119.044 33.4631 119.188 33.1839C119.346 32.8867 119.427 32.5545 119.422 32.218C119.428 31.8831 119.347 31.5523 119.188 31.2575C119.039 30.9847 118.823 30.7544 118.56 30.5882C118.293 30.4203 117.983 30.3333 117.667 30.3379C117.349 30.3317 117.036 30.4187 116.767 30.5882C116.502 30.7548 116.283 30.9849 116.13 31.2575C115.969 31.5516 115.887 31.8827 115.893 32.218C115.889 32.5549 115.97 32.8874 116.13 33.1839C116.278 33.463 116.498 33.6978 116.767 33.8641C117.038 34.0288 117.35 34.1137 117.667 34.109Z" fill="#BF8546"/>
<path d="M121.183 34.879V29.5679H122.081V30.6018L121.931 30.5147C122.053 30.1918 122.277 29.917 122.568 29.7311C122.877 29.542 123.234 29.4474 123.596 29.459C123.953 29.4525 124.305 29.5408 124.616 29.7148C124.912 29.8837 125.158 30.129 125.327 30.4249C125.507 30.7355 125.601 31.0888 125.599 31.448V34.8872H124.671V31.7364C124.679 31.4779 124.625 31.2212 124.513 30.9882C124.414 30.7886 124.259 30.6222 124.067 30.5093C123.864 30.3929 123.634 30.3337 123.4 30.3379C123.167 30.3338 122.938 30.393 122.736 30.5093C122.539 30.624 122.378 30.7918 122.271 30.9936C122.152 31.2237 122.094 31.4803 122.102 31.7391V34.8818L121.183 34.879Z" fill="#BF8546"/>
<path d="M127.933 34.879V27.5326H130.524C130.966 27.5218 131.405 27.615 131.805 27.8047C132.162 27.9783 132.46 28.2514 132.665 28.591C132.878 28.9555 132.985 29.3718 132.975 29.7936C132.991 30.2643 132.853 30.7274 132.583 31.1133C132.317 31.4768 131.944 31.7487 131.517 31.8914L133.223 34.8681H132.099L130.306 31.6847L130.945 32.0601H128.897V34.8681L127.933 34.879ZM128.897 31.184H130.554C130.816 31.191 131.076 31.133 131.31 31.0153C131.523 30.9078 131.7 30.7404 131.819 30.5337C131.944 30.3115 132.007 30.0596 132.001 29.8045C132.008 29.5476 131.945 29.2937 131.819 29.0699C131.699 28.8653 131.522 28.6999 131.31 28.5937C131.075 28.4776 130.816 28.4197 130.554 28.425H128.897V31.184Z" fill="#BF8546"/>
<path d="M135.96 34.996C135.481 35.0036 135.01 34.8773 134.599 34.6314C134.2 34.3898 133.874 34.0448 133.655 33.6328C133.421 33.1955 133.302 32.7058 133.31 32.2098C133.301 31.7152 133.418 31.2264 133.65 30.7895C133.865 30.3863 134.185 30.0481 134.575 29.81C134.971 29.5694 135.426 29.445 135.889 29.4508C136.25 29.4439 136.609 29.5163 136.939 29.663C137.235 29.7975 137.5 29.9921 137.717 30.2344C137.931 30.4731 138.098 30.7501 138.21 31.0507C138.324 31.3552 138.382 31.6778 138.381 32.003C138.386 32.0827 138.386 32.1627 138.381 32.2424C138.381 32.3322 138.36 32.4166 138.346 32.4955H133.992V31.7064H137.802L137.369 32.0601C137.43 31.7523 137.395 31.4331 137.268 31.1459C137.152 30.8845 136.963 30.6617 136.724 30.5038C136.481 30.3475 136.197 30.2653 135.908 30.2671C135.609 30.2646 135.316 30.3466 135.062 30.5038C134.802 30.6665 134.595 30.9008 134.466 31.1786C134.319 31.5041 134.26 31.8625 134.295 32.2179C134.26 32.5684 134.323 32.9216 134.477 33.2383C134.615 33.5215 134.834 33.7579 135.105 33.9185C135.376 34.0775 135.684 34.1602 135.998 34.1579C136.315 34.1681 136.628 34.0828 136.896 33.9131C137.137 33.7492 137.339 33.5336 137.486 33.2818L138.253 33.6763C138.141 33.9305 137.975 34.1571 137.766 34.3402C137.539 34.5467 137.275 34.7091 136.988 34.8191C136.66 34.9452 136.311 35.0053 135.96 34.996Z" fill="#BF8546"/>
<path d="M139.173 28.7216V27.5381H140.087V28.7216H139.173ZM139.173 34.879V29.5678H140.087V34.879H139.173Z" fill="#BF8546"/>
<path d="M141.113 34.879V29.5679H142.008V30.6562L141.88 30.4875C142 30.1689 142.222 29.8991 142.512 29.7202C142.804 29.5387 143.142 29.4443 143.486 29.4481C143.886 29.4431 144.277 29.564 144.604 29.7937C144.927 30.0107 145.169 30.3297 145.29 30.6998H145.034C145.151 30.3144 145.398 29.9817 145.733 29.7583C146.057 29.5483 146.435 29.4376 146.822 29.44C147.171 29.4347 147.516 29.523 147.82 29.6957C148.117 29.8647 148.364 30.1098 148.536 30.4059C148.717 30.716 148.811 31.0696 148.808 31.4289V34.8681H147.88V31.7364C147.889 31.4779 147.834 31.2212 147.722 30.9882C147.626 30.7926 147.478 30.6271 147.295 30.5093C147.104 30.3921 146.883 30.3326 146.658 30.3379C146.435 30.3345 146.215 30.3939 146.024 30.5093C145.835 30.6258 145.681 30.7925 145.581 30.9909C145.467 31.2224 145.411 31.4783 145.418 31.7364V34.879H144.493V31.7364C144.5 31.478 144.446 31.2216 144.335 30.9882C144.237 30.7925 144.089 30.627 143.905 30.5093C143.714 30.3921 143.494 30.3325 143.271 30.3379C143.047 30.3344 142.826 30.3938 142.634 30.5093C142.445 30.6266 142.292 30.7931 142.191 30.9909C142.079 31.2232 142.024 31.4787 142.03 31.7364V34.879H141.113Z" fill="#BF8546"/>
<path d="M151.27 34.996C150.952 35.0028 150.637 34.9377 150.348 34.8055C150.094 34.6846 149.877 34.4965 149.722 34.2613C149.57 34.0287 149.491 33.7557 149.496 33.4777C149.492 33.2125 149.555 32.9504 149.679 32.7159C149.813 32.4755 150.011 32.2762 150.25 32.139C150.552 31.9658 150.885 31.8522 151.23 31.8044L153.199 31.4779V32.2479L151.436 32.5417C151.161 32.5725 150.902 32.6864 150.693 32.8682C150.618 32.9442 150.558 33.0348 150.519 33.1344C150.479 33.234 150.46 33.3406 150.462 33.4478C150.462 33.5534 150.487 33.6574 150.534 33.7519C150.582 33.8463 150.65 33.9285 150.734 33.992C150.92 34.1399 151.153 34.2162 151.39 34.2069C151.694 34.2144 151.994 34.1411 152.261 33.9947C152.502 33.858 152.703 33.66 152.843 33.4206C152.984 33.1719 153.056 32.8902 153.052 32.6043V31.2439C153.057 31.1099 153.03 30.9768 152.975 30.8546C152.92 30.7325 152.837 30.6246 152.734 30.5392C152.495 30.3491 152.196 30.2524 151.891 30.2671C151.602 30.2602 151.317 30.3408 151.074 30.4984C150.844 30.6482 150.664 30.8633 150.557 31.116L149.752 30.7215C149.856 30.4687 150.018 30.244 150.225 30.0657C150.448 29.8678 150.704 29.712 150.982 29.6059C151.271 29.495 151.578 29.4387 151.888 29.4399C152.259 29.4313 152.628 29.5106 152.963 29.6712C153.258 29.8137 153.509 30.0349 153.686 30.3106C153.868 30.5948 153.963 30.9258 153.959 31.2629V34.8681H153.063V33.8614L153.229 33.9212C153.116 34.1303 152.962 34.3152 152.778 34.4654C152.578 34.6284 152.352 34.7555 152.108 34.8409C151.84 34.9396 151.556 34.992 151.27 34.996Z" fill="#BF8546"/>
<path d="M157.515 37.0448C157.16 37.0491 156.808 36.9892 156.475 36.868C156.174 36.7605 155.897 36.595 155.659 36.3809C155.436 36.1804 155.259 35.9334 155.142 35.6572L155.999 35.2627C156.1 35.5262 156.285 35.7496 156.524 35.8993C156.817 36.0854 157.159 36.1801 157.506 36.1714C157.788 36.1744 158.066 36.1159 158.323 36C158.563 35.89 158.767 35.7122 158.908 35.4885C159.057 35.2429 159.132 34.9595 159.125 34.6722V33.4778L159.291 33.6573C159.117 34.0037 158.84 34.2885 158.499 34.4736C158.151 34.6648 157.759 34.7632 157.362 34.7593C156.891 34.7671 156.427 34.6457 156.021 34.4083C155.632 34.1795 155.312 33.8494 155.096 33.4533C154.87 33.0416 154.755 32.5786 154.761 32.1092C154.752 31.6342 154.867 31.1652 155.096 30.7487C155.313 30.3546 155.631 30.0258 156.018 29.7964C156.422 29.5609 156.883 29.4405 157.351 29.4481C157.745 29.4404 158.134 29.5341 158.48 29.7202C158.815 29.9019 159.097 30.1684 159.297 30.4929L159.161 30.7405V29.557H160.056V34.6423C160.062 35.0741 159.95 35.4994 159.732 35.8721C159.515 36.233 159.204 36.5276 158.831 36.7238C158.426 36.9392 157.973 37.0496 157.515 37.0448ZM157.447 33.8641C157.747 33.8681 158.043 33.786 158.298 33.6274C158.551 33.4696 158.759 33.2506 158.905 32.9907C159.057 32.719 159.135 32.4122 159.131 32.101C159.133 31.7908 159.055 31.4852 158.905 31.214C158.76 30.9528 158.551 30.7327 158.298 30.5746C158.043 30.416 157.747 30.3339 157.447 30.3379C157.138 30.3341 156.835 30.4161 156.57 30.5746C156.312 30.727 156.098 30.9459 155.953 31.2085C155.804 31.4822 155.728 31.7895 155.732 32.101C155.728 32.4116 155.804 32.7181 155.953 32.9907C156.097 33.2532 156.308 33.4729 156.565 33.6274C156.831 33.7873 157.136 33.8693 157.447 33.8641Z" fill="#BF8546"/>
<path d="M161.082 28.7216V27.5381H161.999V28.7216H161.082ZM161.082 34.879V29.5678H161.999V34.879H161.082Z" fill="#BF8546"/>
<path d="M163.022 34.879V29.5679H163.92V30.6018L163.77 30.5147C163.891 30.1913 164.115 29.9162 164.407 29.7311C164.716 29.542 165.073 29.4474 165.435 29.459C165.792 29.4525 166.144 29.5408 166.456 29.7148C166.752 29.8837 166.997 30.129 167.166 30.4249C167.345 30.736 167.439 31.089 167.438 31.448V34.8872H166.51V31.7364C166.517 31.4795 166.462 31.2248 166.349 30.9936C166.25 30.7941 166.095 30.6277 165.903 30.5147C165.701 30.3984 165.47 30.3391 165.237 30.3433C165.004 30.3388 164.774 30.3981 164.573 30.5147C164.377 30.6289 164.218 30.7958 164.113 30.9963C163.996 31.2272 163.939 31.4834 163.947 31.7419V34.8845L163.022 34.879Z" fill="#BF8546"/>
<path d="M170.784 34.996C170.306 35.0036 169.835 34.8773 169.424 34.6314C169.025 34.3891 168.698 34.0443 168.477 33.6328C168.245 33.1948 168.127 32.7054 168.134 32.2098C168.124 31.7154 168.24 31.2266 168.472 30.7895C168.689 30.3867 169.009 30.0488 169.399 29.81C169.795 29.5683 170.25 29.4438 170.714 29.4508C171.075 29.4439 171.434 29.5163 171.764 29.663C172.06 29.7982 172.325 29.9927 172.542 30.2344C172.755 30.4738 172.922 30.7506 173.035 31.0507C173.149 31.3552 173.207 31.6778 173.206 32.003C173.206 32.0737 173.206 32.1554 173.192 32.2424C173.179 32.3295 173.171 32.4166 173.157 32.4955H168.804V31.7064H172.613L172.177 32.0601C172.241 31.7526 172.207 31.433 172.08 31.1459C171.963 30.8841 171.775 30.6612 171.535 30.5038C171.292 30.3468 171.008 30.2645 170.719 30.2671C170.42 30.2646 170.127 30.3466 169.873 30.5038C169.613 30.6665 169.406 30.9008 169.277 31.1786C169.13 31.5042 169.07 31.8623 169.103 32.2179C169.071 32.5683 169.134 32.9207 169.285 33.2383C169.425 33.5213 169.645 33.7576 169.916 33.9185C170.187 34.0781 170.495 34.1609 170.809 34.1579C171.125 34.1686 171.437 34.0832 171.704 33.9131C171.946 33.75 172.148 33.5342 172.294 33.2818L173.064 33.6763C172.951 33.9294 172.785 34.1557 172.577 34.3402C172.35 34.5461 172.086 34.7084 171.799 34.8191C171.476 34.9432 171.131 35.0033 170.784 34.996Z" fill="#BF8546"/>
<path d="M176.417 34.996C175.943 35.0038 175.477 34.8774 175.073 34.6314C174.677 34.3895 174.352 34.0468 174.131 33.6383C173.9 33.205 173.782 32.7201 173.788 32.2289C173.779 31.7331 173.897 31.2432 174.131 30.8059C174.352 30.3981 174.677 30.0563 175.073 29.8155C175.478 29.5707 175.944 29.4444 176.417 29.4509C176.825 29.44 177.228 29.5336 177.59 29.7229C177.923 29.8978 178.205 30.1578 178.406 30.4766L178.259 30.7025V27.4211H179.184V34.879H178.289V33.7444L178.406 33.9022C178.225 34.2522 177.94 34.5374 177.59 34.7185C177.228 34.9081 176.825 35.0036 176.417 34.996ZM176.496 34.109C176.812 34.1144 177.124 34.0294 177.394 33.8641C177.658 33.6979 177.874 33.4652 178.019 33.1894C178.175 32.8934 178.255 32.5633 178.251 32.2289C178.256 31.8909 178.176 31.557 178.019 31.2575C177.873 30.9823 177.657 30.7498 177.394 30.5827C177.124 30.4174 176.812 30.3325 176.496 30.3379C176.181 30.3339 175.872 30.4208 175.606 30.5882C175.343 30.7529 175.127 30.9837 174.98 31.2575C174.824 31.557 174.746 31.8912 174.754 32.2289C174.749 32.5628 174.826 32.8929 174.98 33.1894C175.122 33.4666 175.336 33.6999 175.601 33.8641C175.867 34.0279 176.175 34.1128 176.488 34.109H176.496Z" fill="#BF8546"/>
<path d="M73.0938 0H72.5577V37.5237H73.0938V0Z" fill="#BF8546"/>
<path d="M67.8263 25.6389H63.5409V35.9728H67.8263V25.6389Z" fill="#BF8546"/>
<path d="M67.7663 20.2352H47.1529H42.8675V24.5233V25.6389H29.9705V20.2352H25.6824V25.6389H22.2568V20.2352H17.9687V25.6389H14.2846V20.2352H9.99924V25.6389V29.9242V31.8942H4.28811V20.2352H0V31.8942V36.1796H4.28811H9.99924H14.2846V29.9242H42.8675H47.1529V25.6389V24.5233H67.7663V20.2352Z" fill="#BF8546"/>
<path d="M63.5435 14.4751H58.8391V7.50965H46.4836V14.4751H41.4391V4.51668H37.1509V14.4751H30.678V4.51668H26.3898V14.4751H21.6419V7.50965H9.2891V14.4751H0V18.7632H67.8289V7.50965H63.5435V14.4751ZM17.3565 14.4751H13.5745V11.795H17.3565V14.4751ZM54.551 14.4751H50.7717V11.795H54.551V14.4751Z" fill="white"/>
<path d="M62.2673 1.54817H57.9819V5.83356H62.2673V1.54817Z" fill="white"/>
<path d="M67.8263 1.54817H63.5409V5.83356H67.8263V1.54817Z" fill="white"/>
<path d="M35.9264 20.2352H31.6411V24.5206H35.9264V20.2352Z" fill="white"/>
<path d="M41.4852 20.2352H37.1998V24.5206H41.4852V20.2352Z" fill="white"/>
<path d="M62.398 29.9352V25.6389H52.2192H48.2821V29.9352V31.6738H15.4818V35.9728H62.398V31.6738H52.2192V29.9352H62.398Z" fill="#BF8546"/>
</g>
<defs>
<clipPath id="clip0_4_3038">
<rect width="180" height="37.5237" fill="white"/>
</clipPath>
</defs>
</svg>
