<svg width="16" height="16" viewBox="0 0 16 16" fill="none" xmlns="http://www.w3.org/2000/svg">
<g clip-path="url(#clip0_6358_32025)">
<path d="M7.35602 8.27963V6.97091H6.95105V6.68124H8.08824V6.97091H7.68917V8.27963H7.35602Z" fill="#442F24"/>
<path d="M7.94141 8.27963L8.48224 6.68124H8.92407L9.4649 8.27963H9.10222L8.99495 7.95357H8.40923L8.30196 8.27963H7.94141ZM8.50138 7.6639H8.90304L8.6585 6.90782H8.74875L8.50138 7.6639Z" fill="#442F24"/>
<path d="M9.42627 8.27963L9.96687 6.68124H10.4089L10.9495 8.27963H10.5871L10.4798 7.95357H9.89409L9.78682 8.27963H9.42627ZM9.98624 7.6639H10.3879L10.1434 6.90782H10.2334L9.98624 7.6639Z" fill="#442F24"/>
<path d="M11.0288 8.27963V6.68124H11.3615V7.98996H12.0372V8.27963H11.0288Z" fill="#442F24"/>
<path d="M12.1167 8.27963V6.68124H12.4491V8.27963H12.1167Z" fill="#442F24"/>
<path d="M12.6464 8.27963V6.68124H12.9684L13.5669 7.47512H13.4166L13.9981 6.68124H14.3199V8.27963H13.9875V7.04817L14.1205 7.07818L13.5047 7.87206H13.4617L12.8675 7.07818L12.979 7.04817V8.27963H12.6464Z" fill="#442F24"/>
<path d="M14.3993 8.27963L14.9229 7.47913L14.3993 6.681H14.7811L15.2017 7.32036H15.015L15.4335 6.681H15.8153L15.2941 7.47913L15.8153 8.2794H15.4332L15.0148 7.63791L15.2014 7.64004L14.7809 8.2794L14.3993 8.27963Z" fill="#BF8546"/>
<path d="M7.31079 9.39957V8.76163H7.72569V8.83866H7.39491V9.04067H7.70891V9.1177H7.39491V9.32207H7.72569V9.3991L7.31079 9.39957Z" fill="#BF8546"/>
<path d="M7.99537 9.40973C7.95425 9.41043 7.91378 9.39945 7.87865 9.37807C7.84414 9.3572 7.8159 9.32741 7.7969 9.29183C7.7766 9.25427 7.76627 9.21213 7.76689 9.16944C7.76607 9.12635 7.77641 9.08379 7.7969 9.04587C7.8159 9.01036 7.84415 8.98065 7.87865 8.95987C7.91382 8.93859 7.95426 8.92762 7.99537 8.92821C8.03077 8.92731 8.06581 8.93544 8.0972 8.95183C8.12609 8.96715 8.15052 8.9897 8.16808 9.01728L8.15509 9.03689V8.75195H8.23566V9.39957H8.15769V9.30105L8.16808 9.31475C8.15227 9.34508 8.12753 9.36982 8.0972 9.38563C8.06583 9.40211 8.0308 9.4104 7.99537 9.40973ZM8.00222 9.33271C8.02963 9.33317 8.0566 9.32579 8.07995 9.31144C8.10294 9.29708 8.1217 9.27685 8.1343 9.25285C8.14793 9.22719 8.15484 9.19849 8.15438 9.16944C8.15492 9.14008 8.148 9.11106 8.1343 9.08509C8.12162 9.06114 8.10289 9.04093 8.07995 9.0265C8.0566 9.01215 8.02963 9.00477 8.00222 9.00523C7.97483 9.00484 7.94791 9.01239 7.92472 9.02697C7.90191 9.04134 7.88319 9.06136 7.87038 9.08509C7.85694 9.11114 7.8502 9.14013 7.85077 9.16944C7.85038 9.19843 7.85712 9.22707 7.87038 9.25285C7.88281 9.27682 7.9014 9.29705 7.92425 9.31144C7.9477 9.32577 7.97474 9.33315 8.00222 9.33271Z" fill="#BF8546"/>
<path d="M8.48682 9.40974C8.45538 9.4101 8.42443 9.40194 8.39727 9.38611C8.37099 9.371 8.34965 9.34859 8.33584 9.32161C8.32091 9.29237 8.31337 9.25992 8.31387 9.2271V8.93884H8.39349V9.21812C8.39302 9.23901 8.3979 9.25967 8.40767 9.27813C8.41679 9.29488 8.43036 9.30878 8.44689 9.3183C8.46456 9.32816 8.48454 9.33314 8.50477 9.33271C8.52493 9.33312 8.54483 9.32814 8.56242 9.3183C8.57942 9.30846 8.59315 9.29383 8.60188 9.27624C8.61161 9.25599 8.61639 9.23372 8.61582 9.21127V8.93837H8.69639V9.39958H8.61842V9.30979L8.63118 9.31735C8.62113 9.34565 8.60171 9.36966 8.57613 9.3854C8.54928 9.40185 8.5183 9.41029 8.48682 9.40974Z" fill="#BF8546"/>
<path d="M8.9995 9.40973C8.95733 9.41056 8.91576 9.39959 8.87948 9.37807C8.84464 9.35731 8.81607 9.32751 8.79678 9.29183C8.77661 9.25389 8.76637 9.21146 8.76701 9.1685C8.76622 9.12559 8.77647 9.0832 8.79678 9.0454C8.81623 9.01002 8.84478 8.98049 8.87948 8.95987C8.9158 8.93845 8.95734 8.92749 8.9995 8.92821C9.02858 8.92797 9.05741 8.93352 9.08433 8.94451C9.10978 8.95482 9.13321 8.96954 9.15355 8.98798C9.17298 9.00566 9.18796 9.02768 9.19726 9.05225L9.12638 9.08651C9.11569 9.0627 9.09849 9.04239 9.07677 9.02791C9.05413 9.01231 9.02723 9.00406 8.99974 9.00429C8.97302 9.00395 8.94677 9.01134 8.92413 9.02555C8.90155 9.03991 8.88313 9.05995 8.87073 9.08367C8.85713 9.10984 8.8503 9.13901 8.85089 9.1685C8.85047 9.19752 8.85729 9.22618 8.87073 9.2519C8.88291 9.2759 8.90136 9.29615 8.92413 9.3105C8.94677 9.32471 8.97302 9.33209 8.99974 9.33176C9.02723 9.33199 9.05413 9.32374 9.07677 9.30814C9.09877 9.29326 9.116 9.27233 9.12638 9.24789L9.19726 9.2838C9.18783 9.30816 9.17287 9.33 9.15355 9.34759C9.13335 9.36634 9.10989 9.38124 9.08433 9.39154C9.05754 9.40318 9.02871 9.40937 8.9995 9.40973Z" fill="#BF8546"/>
<path d="M9.3964 9.40974C9.36887 9.41033 9.34157 9.40468 9.31654 9.3932C9.29441 9.38276 9.2756 9.36641 9.2622 9.34594C9.24886 9.3258 9.24201 9.30205 9.24259 9.2779C9.24221 9.25486 9.24766 9.23211 9.25842 9.21174C9.27 9.19077 9.28717 9.17342 9.30804 9.16165C9.33427 9.14661 9.36314 9.13674 9.39309 9.13259L9.56416 9.10423V9.1711L9.41105 9.19662C9.38708 9.19924 9.36449 9.20913 9.34631 9.22497C9.33322 9.23842 9.32599 9.25652 9.32623 9.2753C9.32625 9.28446 9.32839 9.2935 9.33249 9.3017C9.33659 9.3099 9.34253 9.31704 9.34986 9.32255C9.36601 9.33536 9.3862 9.34198 9.4068 9.34122C9.43326 9.34186 9.45943 9.3355 9.48264 9.32279C9.50353 9.31091 9.5209 9.29371 9.53297 9.27293C9.5454 9.2514 9.55177 9.22691 9.5514 9.20205V9.08391C9.55179 9.07226 9.54947 9.06066 9.54464 9.05005C9.5398 9.03943 9.53257 9.03008 9.52352 9.02272C9.50288 9.00619 9.47692 8.99778 9.45051 8.99909C9.4254 8.99847 9.40068 9.00547 9.37963 9.01918C9.35966 9.03219 9.34403 9.05086 9.33473 9.07281L9.26645 9.03855C9.27565 9.01669 9.28971 8.99722 9.30756 8.98161C9.32696 8.96445 9.34929 8.95093 9.37348 8.94168C9.39859 8.93202 9.42527 8.92713 9.45216 8.92726C9.48481 8.92636 9.51721 8.93324 9.54667 8.94735C9.57229 8.95978 9.59403 8.97898 9.60952 9.00287C9.62529 9.02755 9.6335 9.05629 9.63315 9.08557V9.39863H9.55518V9.31121L9.56983 9.31641C9.55987 9.33457 9.54647 9.35062 9.53037 9.36366C9.51303 9.37782 9.49336 9.38885 9.47225 9.39627C9.44796 9.40521 9.42228 9.40977 9.3964 9.40974Z" fill="#BF8546"/>
<path d="M9.89781 9.40477C9.87875 9.40596 9.85966 9.40315 9.84175 9.39652C9.82385 9.38989 9.80753 9.37958 9.79385 9.36626C9.76799 9.33617 9.75494 9.29716 9.75746 9.25757V9.01492H9.67358V8.9386H9.69083C9.69969 8.93907 9.70855 8.9377 9.71684 8.93457C9.72514 8.93144 9.7327 8.92662 9.73903 8.92041C9.74516 8.91374 9.7499 8.90592 9.75298 8.8974C9.75606 8.88888 9.75742 8.87984 9.75699 8.87079V8.83299H9.83661V8.93908H9.9401V9.01492H9.83661V9.25521C9.83627 9.26896 9.83876 9.28264 9.84394 9.29538C9.84865 9.3067 9.85695 9.31617 9.86756 9.32231C9.88155 9.32954 9.8972 9.33296 9.91293 9.33224C9.91789 9.33253 9.92286 9.33253 9.92782 9.33224L9.94459 9.33058V9.40147C9.93679 9.40314 9.9289 9.4044 9.92096 9.40525C9.91175 9.4043 9.90442 9.40477 9.89781 9.40477Z" fill="#BF8546"/>
<path d="M10.015 8.86488V8.7621H10.0946V8.86488H10.015ZM10.015 9.39957V8.93837H10.0946V9.39957H10.015Z" fill="#BF8546"/>
<path d="M10.4025 9.40974C10.3603 9.4103 10.3187 9.39953 10.282 9.37855C10.2463 9.35805 10.2168 9.32835 10.1965 9.29254C10.175 9.25481 10.164 9.21195 10.1648 9.1685C10.1641 9.12542 10.1748 9.08292 10.196 9.0454C10.2164 9.0099 10.2457 8.9804 10.2811 8.95987C10.318 8.93856 10.3599 8.92762 10.4025 8.92821C10.4448 8.92761 10.4865 8.93838 10.5233 8.9594C10.5587 8.97969 10.588 9.00905 10.6083 9.04446C10.6296 9.08228 10.6404 9.12511 10.6395 9.1685C10.6404 9.21222 10.6291 9.25533 10.6069 9.29302C10.5861 9.32846 10.5565 9.35792 10.5209 9.37855C10.485 9.39946 10.4441 9.41024 10.4025 9.40974ZM10.4025 9.33271C10.4298 9.33305 10.4567 9.32568 10.48 9.31145C10.5032 9.29703 10.5221 9.27663 10.5346 9.25238C10.5483 9.22657 10.5553 9.19772 10.5549 9.1685C10.5554 9.13942 10.5484 9.11069 10.5346 9.0851C10.5216 9.06141 10.5029 9.0414 10.48 9.02697C10.4568 9.01239 10.4299 9.00484 10.4025 9.00523C10.3749 9.0047 10.3477 9.01226 10.3243 9.02697C10.3013 9.04144 10.2823 9.06142 10.269 9.0851C10.255 9.11063 10.248 9.13938 10.2485 9.1685C10.2481 9.19775 10.2551 9.22663 10.269 9.25238C10.2819 9.27661 10.301 9.297 10.3243 9.31145C10.3479 9.32575 10.375 9.33312 10.4025 9.33271Z" fill="#BF8546"/>
<path d="M10.7078 9.39958V8.93837H10.7857V9.02815L10.7727 9.02059C10.7834 8.99255 10.8028 8.96869 10.828 8.95254C10.8549 8.93612 10.8859 8.92791 10.9173 8.92892C10.9483 8.92835 10.9789 8.93601 11.0059 8.95113C11.0316 8.96579 11.0529 8.98709 11.0676 9.01279C11.0833 9.03976 11.0914 9.07044 11.0912 9.10163V9.40028H11.0107V9.12668C11.0114 9.10423 11.0067 9.08194 10.997 9.0617C10.9884 9.04438 10.9749 9.02993 10.9582 9.02012C10.9406 9.01002 10.9206 9.00487 10.9003 9.00523C10.8801 9.00488 10.8602 9.01002 10.8427 9.02012C10.8255 9.03008 10.8115 9.04465 10.8023 9.06218C10.792 9.08216 10.7869 9.10444 10.7876 9.12691V9.39981L10.7078 9.39958Z" fill="#BF8546"/>
<path d="M11.2939 9.39957V8.76163H11.5189C11.5573 8.76069 11.5954 8.76879 11.6302 8.78526C11.6611 8.80034 11.687 8.82405 11.7048 8.85354C11.7233 8.88519 11.7326 8.92134 11.7318 8.95798C11.7331 8.99885 11.7212 9.03906 11.6977 9.07257C11.6746 9.10414 11.6422 9.12775 11.6051 9.14014L11.7533 9.39863H11.6557L11.5 9.12219L11.5555 9.15479H11.3776V9.39863L11.2939 9.39957ZM11.3776 9.07871H11.5215C11.5442 9.07932 11.5668 9.07428 11.5872 9.06406C11.6056 9.05472 11.621 9.04019 11.6313 9.02224C11.6422 9.00295 11.6477 8.98107 11.6472 8.95892C11.6478 8.93661 11.6423 8.91456 11.6313 8.89513C11.6209 8.87736 11.6056 8.863 11.5872 8.85378C11.5668 8.84369 11.5442 8.83867 11.5215 8.83913H11.3776V9.07871Z" fill="#BF8546"/>
<path d="M11.991 9.40973C11.9495 9.41039 11.9086 9.39943 11.8729 9.37807C11.8382 9.35709 11.8099 9.32713 11.7909 9.29136C11.7706 9.25338 11.7603 9.21086 11.7609 9.16779C11.7601 9.12484 11.7703 9.08239 11.7904 9.04445C11.8092 9.00944 11.8369 8.98007 11.8708 8.95939C11.9051 8.93851 11.9447 8.9277 11.9849 8.9282C12.0163 8.9276 12.0474 8.93389 12.0761 8.94663C12.1018 8.95831 12.1248 8.97521 12.1437 8.99625C12.1623 9.01698 12.1768 9.04103 12.1864 9.06713C12.1963 9.09358 12.2014 9.12159 12.2013 9.14983C12.2018 9.15675 12.2018 9.1637 12.2013 9.17062C12.2013 9.17842 12.1994 9.18574 12.1982 9.1926H11.8202V9.12408H12.151L12.1134 9.15479C12.1187 9.12806 12.1157 9.10034 12.1047 9.0754C12.0946 9.0527 12.0782 9.03336 12.0574 9.01964C12.0363 9.00607 12.0117 8.99893 11.9865 8.99909C11.9606 8.99887 11.9351 9.006 11.9131 9.01964C11.8905 9.03377 11.8725 9.05412 11.8613 9.07824C11.8485 9.1065 11.8434 9.13763 11.8464 9.1685C11.8434 9.19893 11.8489 9.2296 11.8623 9.2571C11.8743 9.28169 11.8933 9.30222 11.9168 9.31617C11.9403 9.32997 11.9671 9.33716 11.9943 9.33696C12.0219 9.33784 12.049 9.33043 12.0723 9.3157C12.0933 9.30147 12.1108 9.28274 12.1236 9.26088L12.1902 9.29514C12.1805 9.31721 12.1661 9.33689 12.1479 9.35279C12.1282 9.37072 12.1053 9.38482 12.0803 9.39437C12.0519 9.40532 12.0215 9.41054 11.991 9.40973Z" fill="#BF8546"/>
<path d="M12.27 8.86488V8.7621H12.3494V8.86488H12.27ZM12.27 9.39957V8.93837H12.3494V9.39957H12.27Z" fill="#BF8546"/>
<path d="M12.4385 9.39958V8.93837H12.5162V9.03288L12.5051 9.01823C12.5155 8.99057 12.5348 8.96713 12.5599 8.9516C12.5853 8.93583 12.6146 8.92764 12.6445 8.92797C12.6792 8.92754 12.7132 8.93803 12.7416 8.95798C12.7697 8.97683 12.7906 9.00452 12.8012 9.03666H12.7789C12.7891 9.0032 12.8106 8.97431 12.8397 8.95491C12.8678 8.93667 12.9007 8.92706 12.9342 8.92727C12.9645 8.92681 12.9945 8.93447 13.0209 8.94948C13.0467 8.96415 13.0682 8.98544 13.083 9.01114C13.0988 9.03807 13.107 9.06878 13.1067 9.09998V9.39863H13.0261V9.12668C13.0268 9.10423 13.0221 9.08194 13.0124 9.06171C13.004 9.04473 12.9912 9.03035 12.9753 9.02012C12.9587 9.00995 12.9395 9.00478 12.92 9.00524C12.9006 9.00494 12.8815 9.0101 12.865 9.02012C12.8485 9.03024 12.8352 9.04472 12.8264 9.06194C12.8165 9.08205 12.8116 9.10427 12.8123 9.12668V9.39958H12.7319V9.12668C12.7326 9.10424 12.7279 9.08197 12.7182 9.06171C12.7098 9.04472 12.6969 9.03034 12.6809 9.02012C12.6644 9.00994 12.6452 9.00477 12.6258 9.00524C12.6064 9.00494 12.5872 9.01009 12.5706 9.02012C12.5542 9.03031 12.5408 9.04476 12.532 9.06194C12.5223 9.08212 12.5176 9.1043 12.5181 9.12668V9.39958H12.4385Z" fill="#BF8546"/>
<path d="M13.3204 9.40973C13.2928 9.41033 13.2655 9.40467 13.2404 9.39319C13.2183 9.3827 13.1995 9.36635 13.186 9.34594C13.1728 9.32573 13.166 9.30203 13.1664 9.27789C13.166 9.25486 13.1715 9.2321 13.1822 9.21173C13.1939 9.19086 13.2111 9.17355 13.2318 9.16164C13.2581 9.1466 13.287 9.13674 13.3169 9.13258L13.488 9.10423V9.17109L13.3349 9.19661C13.311 9.19928 13.2885 9.20917 13.2704 9.22497C13.2638 9.23156 13.2586 9.23943 13.2552 9.24807C13.2517 9.25672 13.2501 9.26598 13.2503 9.27529C13.2503 9.28446 13.2524 9.2935 13.2565 9.3017C13.2606 9.30989 13.2666 9.31703 13.2739 9.32255C13.29 9.33539 13.3102 9.34202 13.3308 9.34121C13.3572 9.34186 13.3833 9.3355 13.4065 9.32278C13.4274 9.31091 13.4449 9.29371 13.457 9.27293C13.4693 9.25133 13.4755 9.22687 13.4752 9.20205V9.08391C13.4756 9.07228 13.4733 9.06071 13.4685 9.05011C13.4637 9.0395 13.4565 9.03013 13.4476 9.02271C13.4268 9.00621 13.4008 8.99781 13.3743 8.99909C13.3492 8.99849 13.3245 9.00549 13.3034 9.01917C13.2835 9.03218 13.2678 9.05086 13.2585 9.0728L13.1886 9.03854C13.1976 9.01659 13.2117 8.99708 13.2297 8.9816C13.249 8.96441 13.2713 8.95088 13.2954 8.94167C13.3205 8.93204 13.3472 8.92715 13.3741 8.92726C13.4063 8.92651 13.4383 8.93339 13.4674 8.94734C13.4931 8.95971 13.5148 8.97893 13.5303 9.00287C13.546 9.02754 13.5542 9.05628 13.5539 9.08556V9.39863H13.4762V9.31121L13.4906 9.3164C13.4807 9.33456 13.4674 9.35061 13.4513 9.36366C13.434 9.37781 13.4143 9.38885 13.3932 9.39626C13.3699 9.40484 13.3453 9.40939 13.3204 9.40973Z" fill="#BF8546"/>
<path d="M13.8627 9.58765C13.8319 9.58802 13.8013 9.58281 13.7724 9.57229C13.7463 9.56296 13.7222 9.54859 13.7015 9.53C13.6822 9.51259 13.6668 9.49113 13.6567 9.46715L13.7311 9.43289C13.7399 9.45577 13.7559 9.47517 13.7767 9.48818C13.8021 9.50433 13.8318 9.51255 13.862 9.5118C13.8864 9.51206 13.9106 9.50698 13.9329 9.49692C13.9538 9.48737 13.9714 9.47193 13.9837 9.4525C13.9966 9.43117 14.0032 9.40657 14.0026 9.38162V9.27789L14.017 9.29349C14.0018 9.32357 13.9778 9.3483 13.9482 9.36437C13.918 9.38098 13.884 9.38952 13.8495 9.38918C13.8086 9.38985 13.7683 9.37931 13.733 9.3587C13.6992 9.33883 13.6714 9.31017 13.6526 9.27577C13.633 9.24002 13.623 9.19981 13.6236 9.15905C13.6228 9.11781 13.6328 9.07708 13.6526 9.04091C13.6715 9.00669 13.6991 8.97813 13.7327 8.95821C13.7678 8.93776 13.8079 8.92731 13.8485 8.92797C13.8827 8.9273 13.9164 8.93544 13.9466 8.9516C13.9757 8.96737 14.0001 8.99051 14.0174 9.0187L14.0056 9.0402V8.93742H14.0834V9.37902C14.0839 9.41652 14.0742 9.45345 14.0553 9.48581C14.0364 9.51715 14.0094 9.54273 13.977 9.55977C13.9419 9.57847 13.9025 9.58806 13.8627 9.58765ZM13.8568 9.31144C13.8829 9.31179 13.9086 9.30466 13.9307 9.29089C13.9527 9.27718 13.9708 9.25817 13.9834 9.2356C13.9966 9.212 14.0034 9.18536 14.003 9.15834C14.0032 9.1314 13.9965 9.10487 13.9834 9.08131C13.9709 9.05863 13.9527 9.03952 13.9307 9.02579C13.9086 9.01202 13.8829 9.00489 13.8568 9.00523C13.83 9.00491 13.8037 9.01202 13.7807 9.02579C13.7582 9.03903 13.7397 9.05804 13.7271 9.08084C13.7141 9.1046 13.7076 9.13129 13.7079 9.15834C13.7075 9.18531 13.7141 9.21192 13.7271 9.2356C13.7396 9.2584 13.7579 9.27747 13.7802 9.29089C13.8033 9.30477 13.8298 9.31189 13.8568 9.31144Z" fill="#BF8546"/>
<path d="M14.1725 8.86488V8.7621H14.2521V8.86488H14.1725ZM14.1725 9.39957V8.93837H14.2521V9.39957H14.1725Z" fill="#BF8546"/>
<path d="M14.3409 9.39958V8.93837H14.4189V9.02815L14.4059 9.02059C14.4165 8.9925 14.4359 8.96861 14.4612 8.95254C14.488 8.93612 14.5191 8.92791 14.5505 8.92892C14.5815 8.92835 14.6121 8.93601 14.6391 8.95113C14.6648 8.96579 14.6861 8.98709 14.7008 9.01279C14.7164 9.0398 14.7245 9.07045 14.7244 9.10163V9.40028H14.6438V9.12668C14.6444 9.10437 14.6397 9.08225 14.6299 9.06218C14.6213 9.04485 14.6078 9.0304 14.5912 9.02059C14.5736 9.01049 14.5536 9.00534 14.5333 9.00571C14.5131 9.00531 14.4931 9.01046 14.4756 9.02059C14.4586 9.03051 14.4448 9.045 14.4357 9.06241C14.4256 9.08246 14.4206 9.10471 14.4213 9.12715V9.40005L14.3409 9.39958Z" fill="#BF8546"/>
<path d="M15.015 9.40973C14.9734 9.41039 14.9325 9.39943 14.8968 9.37807C14.8622 9.35704 14.8338 9.32709 14.8146 9.29136C14.7945 9.25332 14.7842 9.21083 14.7848 9.16779C14.784 9.12486 14.7941 9.08241 14.8141 9.04445C14.833 9.00948 14.8608 8.98013 14.8947 8.95939C14.929 8.93841 14.9686 8.9276 15.0088 8.9282C15.0402 8.9276 15.0713 8.93389 15.1 8.94663C15.1257 8.95837 15.1487 8.97526 15.1676 8.99625C15.1861 9.01704 15.2006 9.04107 15.2104 9.06713C15.2203 9.09358 15.2253 9.12159 15.2253 9.14983C15.2253 9.15597 15.2253 9.16306 15.2241 9.17062C15.2229 9.17818 15.2222 9.18574 15.221 9.1926H14.843V9.12408H15.1737L15.1359 9.15479C15.1415 9.12809 15.1385 9.10033 15.1274 9.0754C15.1174 9.05267 15.101 9.03332 15.0802 9.01964C15.0591 9.00601 15.0344 8.99886 15.0093 8.99909C14.9834 8.99887 14.9579 9.006 14.9358 9.01964C14.9133 9.03377 14.8953 9.05412 14.8841 9.07824C14.8713 9.10652 14.8661 9.13761 14.869 9.1685C14.8662 9.19892 14.8716 9.22953 14.8848 9.2571C14.897 9.28168 14.916 9.3022 14.9396 9.31617C14.9631 9.33003 14.9899 9.33722 15.0171 9.33696C15.0446 9.33788 15.0717 9.33047 15.0948 9.3157C15.1158 9.30154 15.1334 9.28279 15.1461 9.26088L15.213 9.29514C15.2031 9.31712 15.1887 9.33676 15.1707 9.35279C15.1509 9.37067 15.128 9.38476 15.1031 9.39437C15.075 9.40515 15.0451 9.41037 15.015 9.40973Z" fill="#BF8546"/>
<path d="M15.5042 9.40973C15.463 9.41041 15.4226 9.39943 15.3874 9.37807C15.353 9.35707 15.3248 9.32731 15.3057 9.29183C15.2856 9.25421 15.2753 9.2121 15.2759 9.16944C15.2751 9.12639 15.2854 9.08385 15.3057 9.04587C15.3248 9.01046 15.3531 8.98078 15.3874 8.95987C15.4226 8.93862 15.4631 8.92765 15.5042 8.92821C15.5396 8.92726 15.5746 8.93539 15.606 8.95183C15.635 8.96701 15.6594 8.9896 15.6769 9.01728L15.6641 9.03689V8.75195H15.7445V9.39957H15.6667V9.30105L15.6769 9.31475C15.6612 9.34514 15.6364 9.36991 15.606 9.38563C15.5746 9.4021 15.5396 9.41039 15.5042 9.40973ZM15.511 9.33271C15.5385 9.33318 15.5655 9.3258 15.589 9.31144C15.6119 9.29701 15.6307 9.2768 15.6433 9.25285C15.6568 9.22715 15.6637 9.19848 15.6634 9.16944C15.6638 9.14009 15.6569 9.1111 15.6433 9.08509C15.6306 9.06119 15.6119 9.041 15.589 9.0265C15.5655 9.01214 15.5385 9.00477 15.511 9.00523C15.4837 9.00488 15.4569 9.01243 15.4338 9.02697C15.4109 9.04128 15.3921 9.06131 15.3794 9.08509C15.3659 9.1111 15.3591 9.14012 15.3598 9.16944C15.3593 9.19844 15.366 9.22711 15.3794 9.25285C15.3917 9.27692 15.4103 9.29718 15.4333 9.31144C15.4564 9.32566 15.4831 9.33303 15.5103 9.33271H15.511Z" fill="#BF8546"/>
<path d="M6.53178 6.37077H6.48523V9.62923H6.53178V6.37077Z" fill="#BF8546"/>
<path d="M6.0744 8.59719H5.70227V9.49456H6.0744V8.59719Z" fill="#BF8546"/>
<path d="M6.06922 8.12794H4.27921H3.90707V8.50031V8.59719H2.78713V8.12794H2.41477V8.59719H2.1173V8.12794H1.74493V8.59719H1.42501V8.12794H1.05288V8.59719V8.96932V9.14038H0.556939V8.12794H0.18457V9.14038V9.51251H0.556939H1.05288H1.42501V8.96932H3.90707H4.27921V8.59719V8.50031H6.06922V8.12794Z" fill="#BF8546"/>
<path d="M5.70252 7.62775H5.29401V7.02289H4.22108V7.62775H3.78303V6.76299H3.41066V7.62775H2.84856V6.76299H2.4762V7.62775H2.0639V7.02289H0.991212V7.62775H0.18457V8.00012H6.07466V7.02289H5.70252V7.62775ZM1.69177 7.62775H1.36334V7.39502H1.69177V7.62775ZM4.92164 7.62775H4.59345V7.39502H4.92164V7.62775Z" fill="#442F24"/>
<path d="M5.59174 6.50521H5.2196V6.87734H5.59174V6.50521Z" fill="#442F24"/>
<path d="M6.0744 6.50521H5.70227V6.87734H6.0744V6.50521Z" fill="#442F24"/>
<path d="M3.30438 8.12794H2.93225V8.50008H3.30438V8.12794Z" fill="#442F24"/>
<path d="M3.78705 8.12794H3.41492V8.50008H3.78705V8.12794Z" fill="#442F24"/>
<path d="M5.60301 8.97026V8.59719H4.71911H4.37722V8.97026V9.12124H1.52893V9.49456H5.60301V9.12124H4.71911V8.97026H5.60301Z" fill="#BF8546"/>
</g>
<defs>
<clipPath id="clip0_6358_32025">
<rect width="15.6307" height="3.25846" fill="white" transform="translate(0.18457 6.37077)"/>
</clipPath>
</defs>
</svg>
