<svg width="500" height="500" viewBox="0 0 500 500" fill="none" xmlns="http://www.w3.org/2000/svg">
<rect width="500" height="500" rx="83.3333" fill="white"/>
<path d="M454.97 268.665H330.965H305.186V294.461V301.172H227.601V268.665H201.805V301.172H181.197V268.665H155.401V301.172H133.239V268.665H107.459V301.172V326.952V338.803H73.1025V268.665H47.3064V338.803V364.582H73.1025H107.459H133.239V326.952H305.186H330.965V301.172V294.461H454.97V268.665Z" fill="#442F24"/>
<path d="M429.567 234.015H401.266V192.113H326.939V234.015H296.593V174.108H270.796V234.015H231.857V174.108H206.061V234.015H177.498V192.113H103.187V234.015H47.3064V259.811H455.347V192.113H429.567V234.015ZM151.719 234.015H128.967V217.893H151.719V234.015ZM375.47 234.015H352.735V217.893H375.47V234.015Z" fill="#442F24"/>
<path d="M421.891 156.25H396.111V182.03H421.891V156.25Z" fill="#442F24"/>
<path d="M455.331 156.25H429.551V182.03H455.331V156.25Z" fill="#442F24"/>
<path d="M263.43 268.665H237.651V294.445H263.43V268.665Z" fill="#442F24"/>
<path d="M296.87 268.665H271.091V294.445H296.87V268.665Z" fill="#442F24"/>
</svg>
