<svg width="32" height="32" viewBox="0 0 32 32" fill="none" xmlns="http://www.w3.org/2000/svg">
<g clip-path="url(#clip0_6358_32025)">
<path d="M14.7234 16.5669V13.9137H13.9023V13.3264H16.2078V13.9137H15.3988V16.5669H14.7234Z" fill="#442F24"/>
<path d="M15.9103 16.5669L17.0067 13.3264H17.9025L18.9989 16.5669H18.2636L18.0462 15.9059H16.8587L16.6412 16.5669H15.9103ZM17.0455 15.3186H17.8598L17.3641 13.7858H17.547L17.0455 15.3186Z" fill="#442F24"/>
<path d="M18.9204 16.5669L20.0164 13.3264H20.9126L22.0086 16.5669H21.2738L21.0563 15.9059H19.8688L19.6514 16.5669H18.9204ZM20.0556 15.3186H20.87L20.3742 13.7858H20.5567L20.0556 15.3186Z" fill="#442F24"/>
<path d="M22.1694 16.5669V13.3264H22.8439V15.9796H24.2138V16.5669H22.1694Z" fill="#442F24"/>
<path d="M24.3748 16.5669V13.3264H25.0487V16.5669H24.3748Z" fill="#442F24"/>
<path d="M25.4487 16.5669V13.3264H26.1016L27.3149 14.9359H27.0103L28.1891 13.3264H28.8415V16.5669H28.1676V14.0703L28.4372 14.1312L27.189 15.7406H27.1018L25.8971 14.1312L26.1232 14.0703V16.5669H25.4487Z" fill="#442F24"/>
<path d="M29.0024 16.5669L30.0639 14.944L29.0024 13.326H29.7765L30.6291 14.6221H30.2507L31.099 13.326H31.8731L30.8164 14.944L31.8731 16.5664H31.0986L30.2503 15.2659L30.6287 15.2702L29.776 16.5664L29.0024 16.5669Z" fill="#BF8546"/>
<path d="M14.6318 18.8374V17.5441H15.473V17.7002H14.8024V18.1098H15.439V18.2659H14.8024V18.6803H15.473V18.8364L14.6318 18.8374Z" fill="#BF8546"/>
<path d="M16.0196 18.858C15.9362 18.8594 15.8542 18.8371 15.7829 18.7938C15.713 18.7515 15.6557 18.6911 15.6172 18.619C15.576 18.5428 15.5551 18.4574 15.5564 18.3708C15.5547 18.2835 15.5757 18.1972 15.6172 18.1203C15.6557 18.0483 15.713 17.9881 15.7829 17.946C15.8542 17.9028 15.9362 17.8806 16.0196 17.8818C16.0913 17.88 16.1624 17.8964 16.226 17.9297C16.2846 17.9607 16.3341 18.0064 16.3697 18.0624L16.3434 18.1021V17.5244H16.5067V18.8374H16.3486V18.6376L16.3697 18.6654C16.3377 18.7269 16.2875 18.7771 16.226 18.8091C16.1624 18.8425 16.0914 18.8593 16.0196 18.858ZM16.0335 18.7018C16.089 18.7028 16.1437 18.6878 16.191 18.6587C16.2377 18.6296 16.2757 18.5886 16.3012 18.5399C16.3288 18.4879 16.3429 18.4297 16.3419 18.3708C16.343 18.3113 16.329 18.2525 16.3012 18.1998C16.2755 18.1513 16.2375 18.1103 16.191 18.081C16.1437 18.052 16.089 18.037 16.0335 18.0379C15.9779 18.0371 15.9234 18.0524 15.8763 18.082C15.8301 18.1111 15.7921 18.1517 15.7662 18.1998C15.7389 18.2526 15.7253 18.3114 15.7264 18.3708C15.7256 18.4296 15.7393 18.4877 15.7662 18.5399C15.7914 18.5885 15.8291 18.6295 15.8754 18.6587C15.9229 18.6878 15.9777 18.7027 16.0335 18.7018Z" fill="#BF8546"/>
<path d="M17.0158 18.858C16.9521 18.8587 16.8894 18.8422 16.8343 18.8101C16.781 18.7794 16.7378 18.734 16.7098 18.6793C16.6795 18.62 16.6642 18.5543 16.6652 18.4877V17.9033H16.8266V18.4695C16.8257 18.5119 16.8356 18.5537 16.8554 18.5912C16.8739 18.6251 16.9014 18.6533 16.9349 18.6726C16.9707 18.6926 17.0112 18.7027 17.0522 18.7018C17.0931 18.7027 17.1334 18.6926 17.1691 18.6726C17.2036 18.6527 17.2314 18.623 17.2491 18.5874C17.2688 18.5463 17.2785 18.5012 17.2774 18.4556V17.9024H17.4407V18.8374H17.2826V18.6554L17.3085 18.6707C17.2881 18.7281 17.2488 18.7767 17.1969 18.8087C17.1425 18.842 17.0797 18.8591 17.0158 18.858Z" fill="#BF8546"/>
<path d="M18.0553 18.858C17.9698 18.8597 17.8855 18.8374 17.812 18.7938C17.7413 18.7517 17.6834 18.6913 17.6443 18.619C17.6034 18.542 17.5827 18.456 17.5839 18.3689C17.5824 18.2819 17.6031 18.196 17.6443 18.1194C17.6837 18.0476 17.7416 17.9878 17.812 17.946C17.8856 17.9025 17.9698 17.8803 18.0553 17.8818C18.1142 17.8813 18.1727 17.8925 18.2273 17.9148C18.2788 17.9357 18.3264 17.9656 18.3676 18.003C18.407 18.0388 18.4373 18.0834 18.4562 18.1333L18.3125 18.2027C18.2908 18.1544 18.256 18.1133 18.2119 18.0839C18.166 18.0523 18.1115 18.0355 18.0558 18.036C18.0016 18.0353 17.9484 18.0503 17.9025 18.0791C17.8567 18.1082 17.8194 18.1489 17.7942 18.197C17.7666 18.25 17.7528 18.3091 17.754 18.3689C17.7531 18.4278 17.767 18.4859 17.7942 18.538C17.8189 18.5867 17.8563 18.6277 17.9025 18.6568C17.9484 18.6856 18.0016 18.7006 18.0558 18.6999C18.1115 18.7004 18.166 18.6837 18.2119 18.652C18.2565 18.6218 18.2915 18.5794 18.3125 18.5299L18.4562 18.6027C18.4371 18.6521 18.4068 18.6963 18.3676 18.732C18.3266 18.77 18.2791 18.8002 18.2273 18.8211C18.173 18.8447 18.1145 18.8572 18.0553 18.858Z" fill="#BF8546"/>
<path d="M18.86 18.858C18.8042 18.8592 18.7488 18.8477 18.6981 18.8245C18.6532 18.8033 18.6151 18.7701 18.5879 18.7287C18.5609 18.6878 18.547 18.6397 18.5482 18.5907C18.5474 18.544 18.5584 18.4979 18.5803 18.4566C18.6037 18.4141 18.6386 18.3789 18.6808 18.355C18.734 18.3245 18.7926 18.3045 18.8533 18.2961L19.2001 18.2386V18.3742L18.8897 18.4259C18.8411 18.4312 18.7953 18.4513 18.7584 18.4834C18.7319 18.5107 18.7173 18.5474 18.7177 18.5854C18.7178 18.604 18.7221 18.6223 18.7304 18.639C18.7387 18.6556 18.7508 18.6701 18.7656 18.6812C18.7984 18.7072 18.8393 18.7206 18.8811 18.7191C18.9347 18.7204 18.9878 18.7075 19.0348 18.6817C19.0772 18.6576 19.1124 18.6228 19.1369 18.5806C19.1621 18.537 19.175 18.4873 19.1742 18.4369V18.1974C19.175 18.1738 19.1703 18.1503 19.1605 18.1288C19.1507 18.1073 19.1361 18.0883 19.1177 18.0734C19.0759 18.0399 19.0232 18.0228 18.9697 18.0255C18.9188 18.0242 18.8687 18.0384 18.826 18.0662C18.7855 18.0926 18.7538 18.1304 18.735 18.1749L18.5965 18.1055C18.6152 18.0612 18.6437 18.0217 18.6799 17.99C18.7192 17.9553 18.7645 17.9278 18.8135 17.9091C18.8644 17.8895 18.9185 17.8796 18.973 17.8799C19.0392 17.878 19.1049 17.892 19.1646 17.9206C19.2166 17.9458 19.2606 17.9847 19.2921 18.0331C19.324 18.0832 19.3407 18.1414 19.34 18.2008V18.8355H19.1819V18.6582L19.2116 18.6688C19.1914 18.7056 19.1642 18.7381 19.1316 18.7646C19.0964 18.7933 19.0566 18.8156 19.0138 18.8307C18.9645 18.8488 18.9125 18.8581 18.86 18.858Z" fill="#BF8546"/>
<path d="M19.8764 18.8479C19.8378 18.8503 19.7991 18.8446 19.7628 18.8312C19.7265 18.8177 19.6934 18.7968 19.6657 18.7698C19.6133 18.7088 19.5868 18.6298 19.5919 18.5495V18.0576H19.4219V17.9028H19.4568C19.4748 17.9038 19.4928 17.901 19.5096 17.8947C19.5264 17.8883 19.5417 17.8785 19.5546 17.866C19.567 17.8524 19.5766 17.8366 19.5828 17.8193C19.5891 17.802 19.5918 17.7837 19.591 17.7654V17.6887H19.7524V17.9038H19.9622V18.0576H19.7524V18.5447C19.7517 18.5726 19.7567 18.6003 19.7672 18.6261C19.7768 18.6491 19.7936 18.6683 19.8151 18.6808C19.8435 18.6954 19.8752 18.7023 19.9071 18.7009C19.9172 18.7015 19.9272 18.7015 19.9373 18.7009L19.9713 18.6975V18.8412C19.9555 18.8446 19.9395 18.8472 19.9234 18.8489C19.9047 18.847 19.8899 18.8479 19.8764 18.8479Z" fill="#BF8546"/>
<path d="M20.1141 17.7534V17.545H20.2756V17.7534H20.1141ZM20.1141 18.8374V17.9024H20.2756V18.8374H20.1141Z" fill="#BF8546"/>
<path d="M20.8997 18.858C20.8141 18.8591 20.7297 18.8373 20.6554 18.7948C20.583 18.7532 20.5231 18.693 20.482 18.6204C20.4383 18.5439 20.4161 18.457 20.4178 18.3689C20.4162 18.2816 20.4381 18.1954 20.481 18.1194C20.5223 18.0474 20.5817 17.9876 20.6535 17.946C20.7283 17.9028 20.8133 17.8806 20.8997 17.8818C20.9855 17.8806 21.07 17.9024 21.1445 17.945C21.2162 17.9861 21.2758 18.0457 21.3169 18.1174C21.36 18.1941 21.3819 18.281 21.3801 18.3689C21.3819 18.4576 21.359 18.545 21.314 18.6214C21.2718 18.6932 21.2118 18.7529 21.1397 18.7948C21.0669 18.8372 20.9839 18.859 20.8997 18.858ZM20.8997 18.7018C20.9551 18.7025 21.0095 18.6876 21.0568 18.6587C21.1038 18.6295 21.142 18.5881 21.1675 18.539C21.1952 18.4866 21.2094 18.4282 21.2086 18.3689C21.2096 18.31 21.1955 18.2517 21.1675 18.1998C21.1412 18.1518 21.1031 18.1113 21.0568 18.082C21.0098 18.0524 20.9552 18.0371 20.8997 18.0379C20.8437 18.0369 20.7886 18.0522 20.7411 18.082C20.6945 18.1113 20.656 18.1518 20.6291 18.1998C20.6007 18.2516 20.5863 18.3099 20.5874 18.3689C20.5865 18.4282 20.6009 18.4868 20.6291 18.539C20.6552 18.5881 20.6938 18.6294 20.7411 18.6587C20.7889 18.6877 20.8438 18.7027 20.8997 18.7018Z" fill="#BF8546"/>
<path d="M21.5184 18.8374V17.9024H21.6765V18.0844L21.6502 18.0691C21.6717 18.0122 21.711 17.9638 21.7622 17.9311C21.8166 17.8978 21.8796 17.8812 21.9433 17.8832C22.0061 17.8821 22.0681 17.8976 22.1229 17.9282C22.175 17.958 22.2182 18.0011 22.248 18.0533C22.2797 18.1079 22.2963 18.1701 22.2959 18.2334V18.8388H22.1325V18.2841C22.134 18.2386 22.1245 18.1934 22.1047 18.1524C22.0873 18.1173 22.06 18.088 22.0262 18.0681C21.9905 18.0476 21.9499 18.0372 21.9088 18.0379C21.8678 18.0372 21.8274 18.0476 21.7919 18.0681C21.7572 18.0883 21.7288 18.1178 21.71 18.1534C21.6891 18.1939 21.6789 18.2391 21.6803 18.2846V18.8379L21.5184 18.8374Z" fill="#BF8546"/>
<path d="M22.7069 18.8374V17.5441H23.1629C23.2408 17.5422 23.3181 17.5586 23.3885 17.592C23.4513 17.6225 23.5039 17.6706 23.5399 17.7304C23.5773 17.7946 23.5962 17.8679 23.5945 17.9421C23.5972 18.025 23.573 18.1065 23.5255 18.1744C23.4786 18.2384 23.413 18.2863 23.3378 18.3114L23.6381 18.8355H23.4403L23.1246 18.275L23.2372 18.3411H22.8765V18.8355L22.7069 18.8374ZM22.8765 18.1869H23.1682C23.2143 18.1881 23.2601 18.1779 23.3013 18.1572C23.3388 18.1383 23.37 18.1088 23.3909 18.0724C23.413 18.0333 23.4241 17.9889 23.423 17.944C23.4243 17.8988 23.4132 17.8541 23.3909 17.8147C23.3698 17.7787 23.3387 17.7496 23.3013 17.7309C23.26 17.7104 23.2143 17.7003 23.1682 17.7012H22.8765V18.1869Z" fill="#BF8546"/>
<path d="M24.12 18.858C24.0357 18.8593 23.9528 18.8371 23.8805 18.7938C23.8102 18.7513 23.7528 18.6905 23.7142 18.618C23.673 18.541 23.6521 18.4548 23.6534 18.3675C23.6518 18.2804 23.6724 18.1944 23.7133 18.1174C23.7512 18.0465 23.8074 17.9869 23.8761 17.945C23.9458 17.9027 24.026 17.8807 24.1075 17.8818C24.1711 17.8805 24.2342 17.8933 24.2924 17.9191C24.3445 17.9428 24.3912 17.9771 24.4294 18.0197C24.4671 18.0617 24.4965 18.1105 24.5161 18.1634C24.5362 18.217 24.5464 18.2738 24.5463 18.3311C24.5471 18.3451 24.5471 18.3592 24.5463 18.3732C24.5463 18.389 24.5424 18.4039 24.54 18.4178H23.7736V18.2789H24.4442L24.3681 18.3411C24.3789 18.2869 24.3727 18.2307 24.3504 18.1802C24.3298 18.1342 24.2966 18.0949 24.2546 18.0671C24.2117 18.0396 24.1618 18.0252 24.1109 18.0255C24.0583 18.025 24.0066 18.0395 23.9619 18.0671C23.9162 18.0958 23.8797 18.137 23.857 18.1859C23.8311 18.2432 23.8207 18.3063 23.8268 18.3689C23.8207 18.4306 23.8318 18.4928 23.8589 18.5485C23.8833 18.5984 23.9218 18.64 23.9696 18.6683C24.0172 18.6963 24.0714 18.7109 24.1267 18.7105C24.1825 18.7122 24.2376 18.6972 24.2847 18.6673C24.3272 18.6385 24.3627 18.6005 24.3887 18.5562L24.5238 18.6257C24.504 18.6704 24.4748 18.7103 24.438 18.7425C24.398 18.7789 24.3515 18.8075 24.301 18.8268C24.2433 18.849 24.1818 18.8596 24.12 18.858Z" fill="#BF8546"/>
<path d="M24.6857 17.7534V17.545H24.8466V17.7534H24.6857ZM24.6857 18.8374V17.9024H24.8466V18.8374H24.6857Z" fill="#BF8546"/>
<path d="M25.0272 18.8374V17.9024H25.1848V18.094L25.1623 18.0643C25.1834 18.0082 25.2225 17.9607 25.2734 17.9292C25.3249 17.8972 25.3844 17.8806 25.4449 17.8813C25.5153 17.8804 25.5842 17.9017 25.6418 17.9421C25.6987 17.9803 25.7412 18.0365 25.7625 18.1016H25.7175C25.7381 18.0338 25.7816 17.9752 25.8406 17.9359C25.8976 17.8989 25.9642 17.8794 26.0322 17.8799C26.0937 17.8789 26.1544 17.8945 26.208 17.9249C26.2603 17.9546 26.3038 17.9978 26.3339 18.0499C26.3659 18.1045 26.3825 18.1668 26.3818 18.23V18.8355H26.2185V18.2841C26.22 18.2386 26.2105 18.1934 26.1907 18.1524C26.1738 18.118 26.1478 18.0888 26.1155 18.0681C26.0818 18.0475 26.0429 18.037 26.0034 18.0379C25.9641 18.0373 25.9255 18.0478 25.8918 18.0681C25.8585 18.0886 25.8315 18.118 25.8137 18.1529C25.7936 18.1937 25.7838 18.2387 25.785 18.2841V18.8374H25.6221V18.2841C25.6234 18.2387 25.6139 18.1935 25.5944 18.1524C25.5772 18.118 25.5511 18.0888 25.5187 18.0681C25.4852 18.0475 25.4464 18.037 25.4071 18.0379C25.3676 18.0373 25.3288 18.0478 25.295 18.0681C25.2617 18.0888 25.2348 18.1181 25.2169 18.1529C25.1973 18.1938 25.1876 18.2388 25.1886 18.2841V18.8374H25.0272Z" fill="#BF8546"/>
<path d="M26.8153 18.858C26.7593 18.8592 26.7038 18.8477 26.6529 18.8245C26.6081 18.8032 26.57 18.77 26.5427 18.7286C26.516 18.6877 26.5021 18.6396 26.503 18.5907C26.5022 18.544 26.5132 18.4979 26.5351 18.4566C26.5588 18.4143 26.5936 18.3792 26.6356 18.355C26.6888 18.3245 26.7474 18.3045 26.8081 18.2961L27.1549 18.2386V18.3742L26.8445 18.4259C26.7961 18.4313 26.7505 18.4514 26.7137 18.4834C26.7004 18.4968 26.6899 18.5127 26.6829 18.5302C26.6759 18.5478 26.6726 18.5666 26.673 18.5854C26.673 18.604 26.6774 18.6223 26.6857 18.639C26.694 18.6556 26.7061 18.67 26.7209 18.6812C26.7536 18.7073 26.7946 18.7207 26.8364 18.7191C26.8899 18.7204 26.9427 18.7075 26.9896 18.6817C27.0321 18.6576 27.0675 18.6228 27.0921 18.5806C27.117 18.5369 27.1297 18.4873 27.129 18.4369V18.1974C27.1298 18.1739 27.1251 18.1504 27.1154 18.1289C27.1057 18.1074 27.0912 18.0884 27.073 18.0734C27.0309 18.0399 26.9782 18.0229 26.9245 18.0255C26.8736 18.0243 26.8235 18.0385 26.7808 18.0662C26.7403 18.0926 26.7086 18.1304 26.6898 18.1749L26.548 18.1055C26.5663 18.061 26.5949 18.0214 26.6313 17.99C26.6704 17.9552 26.7156 17.9277 26.7645 17.9091C26.8154 17.8895 26.8695 17.8796 26.924 17.8799C26.9894 17.8783 27.0542 17.8923 27.1132 17.9206C27.1652 17.9456 27.2093 17.9846 27.2406 18.0331C27.2726 18.0832 27.2892 18.1414 27.2885 18.2008V18.8355H27.1309V18.6582L27.1602 18.6688C27.1402 18.7056 27.1131 18.7381 27.0806 18.7646C27.0455 18.7933 27.0056 18.8156 26.9628 18.8307C26.9155 18.8481 26.8656 18.8573 26.8153 18.858Z" fill="#BF8546"/>
<path d="M27.9147 19.2187C27.8523 19.2194 27.7903 19.2089 27.7317 19.1875C27.6786 19.1686 27.6298 19.1395 27.588 19.1018C27.5487 19.0665 27.5176 19.023 27.497 18.9744L27.6478 18.9049C27.6657 18.9513 27.6981 18.9907 27.7403 19.017C27.7919 19.0498 27.8521 19.0664 27.9132 19.0649C27.9627 19.0654 28.0118 19.0551 28.0569 19.0347C28.0993 19.0154 28.1351 18.9841 28.1599 18.9447C28.1862 18.9014 28.1995 18.8516 28.1982 18.801V18.5907L28.2274 18.6223C28.1967 18.6833 28.1481 18.7334 28.088 18.766C28.0267 18.7997 27.9578 18.817 27.8878 18.8163C27.8049 18.8177 27.7233 18.7963 27.6517 18.7545C27.5832 18.7142 27.5269 18.6561 27.4888 18.5864C27.4491 18.5139 27.4288 18.4324 27.4299 18.3498C27.4283 18.2662 27.4486 18.1836 27.4888 18.1103C27.527 18.0409 27.5831 17.983 27.6512 17.9426C27.7224 17.9012 27.8035 17.8799 27.8859 17.8813C27.9552 17.8799 28.0236 17.8964 28.0847 17.9292C28.1437 17.9612 28.1932 18.0081 28.2284 18.0652L28.2044 18.1088V17.9005H28.362V18.7957C28.3632 18.8717 28.3435 18.9466 28.305 19.0122C28.2669 19.0758 28.2121 19.1276 28.1465 19.1622C28.0751 19.2001 27.9954 19.2195 27.9147 19.2187ZM27.9027 18.6587C27.9556 18.6594 28.0076 18.645 28.0526 18.617C28.0971 18.5893 28.1338 18.5507 28.1594 18.505C28.1861 18.4571 28.1999 18.4031 28.1992 18.3483C28.1996 18.2937 28.1859 18.2399 28.1594 18.1922C28.134 18.1462 28.0972 18.1074 28.0526 18.0796C28.0076 18.0517 27.9556 18.0372 27.9027 18.0379C27.8484 18.0373 27.795 18.0517 27.7484 18.0796C27.7029 18.1064 27.6653 18.145 27.6397 18.1912C27.6135 18.2394 27.6001 18.2935 27.6009 18.3483C27.6001 18.403 27.6135 18.457 27.6397 18.505C27.6651 18.5512 27.7023 18.5898 27.7475 18.617C27.7943 18.6452 27.8481 18.6596 27.9027 18.6587Z" fill="#BF8546"/>
<path d="M28.5426 17.7534V17.545H28.704V17.7534H28.5426ZM28.5426 18.8374V17.9024H28.704V18.8374H28.5426Z" fill="#BF8546"/>
<path d="M28.8842 18.8374V17.9024H29.0422V18.0844L29.0159 18.0691C29.0373 18.0121 29.0766 17.9637 29.128 17.9311C29.1824 17.8978 29.2453 17.8812 29.309 17.8832C29.3718 17.8821 29.4338 17.8976 29.4887 17.9282C29.5408 17.958 29.5839 18.0011 29.6137 18.0533C29.6453 18.108 29.6618 18.1702 29.6616 18.2334V18.8388H29.4982V18.2841C29.4994 18.2389 29.4897 18.1941 29.47 18.1534C29.4525 18.1182 29.4252 18.0889 29.3914 18.0691C29.3557 18.0486 29.3152 18.0382 29.2741 18.0389C29.2331 18.0381 29.1927 18.0485 29.1572 18.0691C29.1228 18.0892 29.0947 18.1185 29.0762 18.1538C29.0557 18.1945 29.0457 18.2396 29.047 18.2851V18.8383L28.8842 18.8374Z" fill="#BF8546"/>
<path d="M30.2507 18.858C30.1665 18.8593 30.0835 18.8371 30.0112 18.7938C29.9409 18.7512 29.8834 18.6904 29.8445 18.618C29.8037 18.5409 29.7829 18.4547 29.7842 18.3675C29.7824 18.2804 29.8029 18.1944 29.8436 18.1174C29.8818 18.0465 29.9382 17.987 30.0069 17.945C30.0765 17.9025 30.1567 17.8805 30.2383 17.8818C30.3019 17.8805 30.365 17.8933 30.4232 17.9191C30.4752 17.9429 30.5218 17.9772 30.5601 18.0197C30.5977 18.0619 30.6271 18.1106 30.6468 18.1634C30.6669 18.217 30.6772 18.2738 30.677 18.3311C30.677 18.3435 30.677 18.3579 30.6746 18.3732C30.6722 18.3886 30.6708 18.4039 30.6684 18.4178H29.902V18.2789H30.5726L30.496 18.3411C30.5071 18.287 30.5011 18.2307 30.4787 18.1802C30.4583 18.1341 30.425 18.0949 30.3829 18.0671C30.3401 18.0395 30.2902 18.025 30.2392 18.0255C30.1866 18.025 30.135 18.0395 30.0902 18.0671C30.0445 18.0958 30.0081 18.137 29.9853 18.1859C29.9595 18.2433 29.9489 18.3063 29.9547 18.3689C29.949 18.4306 29.9601 18.4926 29.9868 18.5485C30.0115 18.5984 30.0501 18.64 30.0979 18.6683C30.1455 18.6964 30.1998 18.711 30.255 18.7105C30.3107 18.7123 30.3656 18.6973 30.4126 18.6673C30.4552 18.6386 30.4908 18.6006 30.5166 18.5562L30.6521 18.6257C30.6321 18.6702 30.6029 18.71 30.5664 18.7425C30.5262 18.7788 30.4798 18.8074 30.4294 18.8268C30.3724 18.8487 30.3117 18.8593 30.2507 18.858Z" fill="#BF8546"/>
<path d="M31.2422 18.858C31.1589 18.8594 31.0768 18.8371 31.0056 18.7938C30.9359 18.7512 30.8787 18.6909 30.8399 18.619C30.7991 18.5427 30.7783 18.4573 30.7795 18.3708C30.7779 18.2836 30.7987 18.1973 30.8399 18.1203C30.8787 18.0485 30.9359 17.9884 31.0056 17.946C31.0769 17.9029 31.1589 17.8806 31.2422 17.8818C31.314 17.8799 31.3851 17.8963 31.4487 17.9297C31.5074 17.9605 31.557 18.0062 31.5924 18.0624L31.5665 18.1021V17.5244H31.7294V18.8374H31.5718V18.6376L31.5924 18.6654C31.5605 18.727 31.5103 18.7772 31.4487 18.8091C31.3851 18.8425 31.3141 18.8593 31.2422 18.858ZM31.2561 18.7018C31.3118 18.7028 31.3667 18.6878 31.4142 18.6587C31.4607 18.6295 31.4987 18.5885 31.5244 18.5399C31.5518 18.4878 31.5658 18.4297 31.5651 18.3708C31.5659 18.3113 31.5519 18.2526 31.5244 18.1998C31.4985 18.1514 31.4606 18.1104 31.4142 18.081C31.3667 18.0519 31.3118 18.037 31.2561 18.0379C31.2008 18.0372 31.1464 18.0525 31.0995 18.082C31.0531 18.111 31.0151 18.1516 30.9893 18.1998C30.9618 18.2526 30.9482 18.3114 30.9496 18.3708C30.9486 18.4296 30.9622 18.4877 30.9893 18.5399C31.0142 18.5887 31.052 18.6298 31.0985 18.6587C31.1455 18.6875 31.1996 18.7025 31.2547 18.7018H31.2561Z" fill="#BF8546"/>
<path d="M13.0525 12.697H12.9581V19.303H13.0525V12.697Z" fill="#BF8546"/>
<path d="M12.1252 17.2107H11.3707V19.0299H12.1252V17.2107Z" fill="#BF8546"/>
<path d="M12.1147 16.2594H8.48572H7.73129V17.0143V17.2107H5.46081V16.2594H4.7059V17.2107H4.10283V16.2594H3.34792V17.2107H2.69934V16.2594H1.94491V17.2107V17.9651V18.3119H0.939482V16.2594H0.18457V18.3119V19.0664H0.939482H1.94491H2.69934V17.9651H7.73129H8.48572V17.2107V17.0143H12.1147V16.2594Z" fill="#BF8546"/>
<path d="M11.3712 15.2453H10.543V14.0191H8.36788V15.2453H7.47981V13.4922H6.7249V15.2453H5.58535V13.4922H4.83044V15.2453H3.99457V14.0191H1.81989V15.2453H0.18457V16.0002H12.1257V14.0191H11.3712V15.2453ZM3.24014 15.2453H2.57432V14.7735H3.24014V15.2453ZM9.78813 15.2453H9.1228V14.7735H9.78813V15.2453Z" fill="#442F24"/>
<path d="M11.1466 12.9696H10.3922V13.724H11.1466V12.9696Z" fill="#442F24"/>
<path d="M12.1252 12.9696H11.3707V13.724H12.1252V12.9696Z" fill="#442F24"/>
<path d="M6.50931 16.2594H5.75488V17.0138H6.50931V16.2594Z" fill="#442F24"/>
<path d="M7.48795 16.2594H6.73352V17.0138H7.48795V16.2594Z" fill="#442F24"/>
<path d="M11.1696 17.967V17.2107H9.37768H8.68456V17.967V18.2731H2.91016V19.0299H11.1696V18.2731H9.37768V17.967H11.1696Z" fill="#BF8546"/>
</g>
<defs>
<clipPath id="clip0_6358_32025">
<rect width="31.6886" height="6.60595" fill="white" transform="translate(0.18457 12.697)"/>
</clipPath>
</defs>
</svg>
