<svg width="96" height="96" viewBox="0 0 96 96" fill="none" xmlns="http://www.w3.org/2000/svg">
<rect width="96" height="96" rx="16" fill="white"/>
<path d="M87.3543 51.5837H63.5454H58.5956V56.5366V57.8251H43.6994V51.5837H38.7465V57.8251H34.7899V51.5837H29.837V57.8251H25.5819V51.5837H20.6322V57.8251V62.7748V65.0501H14.0357V51.5837H9.08282V65.0501V69.9998H14.0357H20.6322H25.5819V62.7748H58.5956H63.5454V57.8251V56.5366H87.3543V51.5837Z" fill="#442F24"/>
<path d="M82.4768 44.9309H77.0431V36.8857H62.7723V44.9309H56.9458V33.4287H51.9929V44.9309H44.5165V33.4287H39.5636V44.9309H34.0797V36.8857H19.8119V44.9309H9.08282V49.8837H87.4266V36.8857H82.4768V44.9309ZM29.13 44.9309H24.7616V41.8354H29.13V44.9309ZM72.0903 44.9309H67.7251V41.8354H72.0903V44.9309Z" fill="#442F24"/>
<path d="M81.0031 30H76.0534V34.9497H81.0031V30Z" fill="#442F24"/>
<path d="M87.4235 30H82.4738V34.9497H87.4235V30Z" fill="#442F24"/>
<path d="M50.5786 51.5837H45.6289V56.5335H50.5786V51.5837Z" fill="#442F24"/>
<path d="M56.9991 51.5837H52.0494V56.5335H56.9991V51.5837Z" fill="#442F24"/>
</svg>
