<svg width="96" height="96" viewBox="0 0 96 96" fill="none" xmlns="http://www.w3.org/2000/svg">
<g clip-path="url(#clip0_6358_32025)">
<path d="M44.1025 49.6925V41.7715H41.6514V40.0183H48.5341V41.7715H46.1188V49.6925H44.1025Z" fill="#442F24"/>
<path d="M47.6461 49.6925L50.9195 40.0183H53.5936L56.867 49.6925H54.6719L54.0226 47.719H50.4776L49.8284 49.6925H47.6461ZM51.0353 45.9658H53.4664L51.9863 41.3897H52.5325L51.0353 45.9658Z" fill="#442F24"/>
<path d="M56.6324 49.6925L59.9044 40.0183H62.58L65.8519 49.6925H63.6582L63.009 47.719H59.4639L58.8147 49.6925H56.6324ZM60.0216 45.9658H62.4527L60.9726 41.3897H61.5175L60.0216 45.9658Z" fill="#442F24"/>
<path d="M66.3324 49.6925V40.0183H68.3459V47.9392H72.4358V49.6925H66.3324Z" fill="#442F24"/>
<path d="M72.9163 49.6925V40.0183H74.9283V49.6925H72.9163Z" fill="#442F24"/>
<path d="M76.1223 49.6925V40.0183H78.0715L81.6937 44.8232H80.7842L84.3035 40.0183H86.2513V49.6925H84.2392V42.2391L85.0443 42.4207L81.3176 47.2257H81.0574L77.4608 42.4207L78.1358 42.2391V49.6925H76.1223Z" fill="#442F24"/>
<path d="M86.7319 49.6925L89.9008 44.8475L86.7319 40.0168H89.0428L91.5883 43.8865H90.4586L92.9911 40.0168H95.3021L92.1474 44.8475L95.3021 49.691H92.9897L90.4571 45.8085L91.5868 45.8214L89.0414 49.691L86.7319 49.6925Z" fill="#442F24"/>
<path d="M43.8293 56.4708V52.6097H46.3405V53.0759H44.3384V54.2986H46.239V54.7648H44.3384V56.0018H46.3405V56.468L43.8293 56.4708Z" fill="#442F24"/>
<path d="M47.9722 56.5323C47.7234 56.5366 47.4784 56.4701 47.2658 56.3407C47.0569 56.2144 46.886 56.0341 46.771 55.8187C46.6481 55.5914 46.5856 55.3364 46.5894 55.078C46.5844 54.8172 46.647 54.5596 46.771 54.3301C46.886 54.1152 47.057 53.9353 47.2658 53.8095C47.4787 53.6808 47.7234 53.6144 47.9722 53.6179C48.1865 53.6125 48.3986 53.6617 48.5886 53.7609C48.7634 53.8536 48.9112 53.9901 49.0176 54.157L48.9389 54.2757V52.5511H49.4266V56.4708H48.9547V55.8745L49.0176 55.9575C48.9219 56.141 48.7721 56.2908 48.5886 56.3865C48.3987 56.4862 48.1867 56.5364 47.9722 56.5323ZM48.0137 56.0661C48.1796 56.0689 48.3428 56.0243 48.4842 55.9374C48.6233 55.8505 48.7368 55.7281 48.8131 55.5828C48.8956 55.4275 48.9374 55.2538 48.9346 55.078C48.9379 54.9003 48.8961 54.7246 48.8131 54.5675C48.7364 54.4225 48.623 54.3002 48.4842 54.2128C48.3428 54.126 48.1796 54.0813 48.0137 54.0841C47.8479 54.0817 47.685 54.1274 47.5446 54.2157C47.4066 54.3027 47.2933 54.4238 47.2157 54.5675C47.1344 54.7251 47.0936 54.9006 47.097 55.078C47.0947 55.2534 47.1355 55.4268 47.2157 55.5828C47.291 55.7279 47.4035 55.8503 47.5418 55.9374C47.6837 56.0242 47.8474 56.0688 48.0137 56.0661Z" fill="#442F24"/>
<path d="M50.9466 56.5323C50.7563 56.5345 50.569 56.4851 50.4046 56.3893C50.2455 56.2979 50.1164 56.1623 50.0328 55.9989C49.9424 55.822 49.8968 55.6256 49.8998 55.4269V53.6823H50.3817V55.3726C50.3789 55.499 50.4084 55.624 50.4675 55.7358C50.5227 55.8372 50.6049 55.9213 50.7049 55.9789C50.8119 56.0386 50.9328 56.0687 51.0553 56.0661C51.1773 56.0686 51.2977 56.0385 51.4042 55.9789C51.5071 55.9194 51.5901 55.8308 51.643 55.7244C51.7019 55.6018 51.7308 55.467 51.7274 55.3311V53.6794H52.215V56.4708H51.7431V55.9274L51.8203 55.9732C51.7595 56.1445 51.6419 56.2898 51.4871 56.385C51.3246 56.4846 51.1371 56.5357 50.9466 56.5323Z" fill="#442F24"/>
<path d="M54.0497 56.5323C53.7945 56.5373 53.5429 56.471 53.3233 56.3407C53.1124 56.215 52.9395 56.0347 52.8228 55.8187C52.7007 55.5891 52.6387 55.3323 52.6426 55.0723C52.6378 54.8126 52.6999 54.556 52.8228 54.3272C52.9405 54.1131 53.1133 53.9344 53.3233 53.8095C53.5431 53.6799 53.7946 53.6136 54.0497 53.6179C54.2257 53.6165 54.4002 53.6501 54.5631 53.7166C54.7172 53.779 54.859 53.8681 54.9821 53.9797C55.0997 54.0867 55.1904 54.22 55.2467 54.3687L54.8177 54.576C54.7529 54.4319 54.6488 54.309 54.5174 54.2214C54.3804 54.1269 54.2176 54.077 54.0512 54.0784C53.8894 54.0764 53.7305 54.1211 53.5936 54.2071C53.4569 54.294 53.3454 54.4153 53.2704 54.5589C53.188 54.7173 53.1467 54.8938 53.1503 55.0723C53.1477 55.2479 53.189 55.4214 53.2704 55.5771C53.3441 55.7223 53.4558 55.8449 53.5936 55.9317C53.7305 56.0177 53.8894 56.0624 54.0512 56.0604C54.2176 56.0618 54.3804 56.0119 54.5174 55.9174C54.6505 55.8274 54.7548 55.7007 54.8177 55.5528L55.2467 55.7701C55.1896 55.9176 55.099 56.0497 54.9821 56.1562C54.8599 56.2697 54.7179 56.3599 54.5631 56.4222C54.401 56.4927 54.2265 56.5301 54.0497 56.5323Z" fill="#442F24"/>
<path d="M56.4522 56.5323C56.2855 56.5359 56.1203 56.5017 55.9688 56.4322C55.8349 56.3691 55.721 56.2701 55.6399 56.1462C55.5591 56.0243 55.5177 55.8806 55.5212 55.7344C55.5189 55.595 55.5519 55.4572 55.617 55.334C55.6871 55.207 55.7911 55.1021 55.9173 55.0308C56.0761 54.9398 56.2509 54.8801 56.4321 54.8549L57.4675 54.6833V55.088L56.5408 55.2424C56.3958 55.2583 56.259 55.3182 56.149 55.4141C56.0697 55.4955 56.026 55.605 56.0274 55.7186C56.0275 55.7741 56.0405 55.8288 56.0653 55.8785C56.0901 55.9281 56.1261 55.9713 56.1704 56.0047C56.2682 56.0822 56.3904 56.1222 56.5151 56.1176C56.6752 56.1215 56.8336 56.083 56.9741 56.0061C57.1006 55.9342 57.2057 55.8301 57.2787 55.7043C57.3539 55.574 57.3925 55.4258 57.3903 55.2753V54.5603C57.3926 54.4897 57.3786 54.4196 57.3493 54.3553C57.3201 54.2911 57.2763 54.2345 57.2215 54.1899C57.0966 54.0899 56.9395 54.039 56.7796 54.0469C56.6276 54.0432 56.4781 54.0855 56.3506 54.1685C56.2298 54.2473 56.1352 54.3603 56.0789 54.4931L55.6656 54.2858C55.7213 54.1534 55.8064 54.0356 55.9145 53.9411C56.0319 53.8373 56.167 53.7554 56.3134 53.6994C56.4654 53.641 56.6269 53.6114 56.7896 53.6122C56.9873 53.6067 57.1833 53.6484 57.3617 53.7338C57.5167 53.809 57.6483 53.9252 57.742 54.0698C57.8375 54.2192 57.8872 54.3931 57.8851 54.5703V56.4651H57.4131V55.936L57.5018 55.9675C57.4415 56.0774 57.3604 56.1746 57.263 56.2535C57.1581 56.3392 57.039 56.4059 56.9112 56.4508C56.7642 56.505 56.6088 56.5326 56.4522 56.5323Z" fill="#442F24"/>
<path d="M59.4867 56.5023C59.3714 56.5095 59.2558 56.4925 59.1475 56.4523C59.0391 56.4122 58.9403 56.3498 58.8575 56.2692C58.701 56.0871 58.622 55.851 58.6373 55.6114V54.1427H58.1296V53.6808H58.234C58.2876 53.6837 58.3413 53.6754 58.3915 53.6564C58.4417 53.6375 58.4874 53.6083 58.5258 53.5707C58.5628 53.5303 58.5915 53.483 58.6102 53.4314C58.6288 53.3799 58.6371 53.3252 58.6344 53.2704V53.0416H59.1164V53.6837H59.7427V54.1427H59.1164V55.5971C59.1143 55.6803 59.1293 55.7631 59.1607 55.8402C59.1892 55.9087 59.2395 55.966 59.3037 56.0032C59.3884 56.047 59.4831 56.0677 59.5783 56.0633C59.6083 56.0651 59.6384 56.0651 59.6684 56.0633L59.7699 56.0533V56.4823C59.7226 56.4924 59.6749 56.5 59.6269 56.5052C59.5711 56.4994 59.5268 56.5023 59.4867 56.5023Z" fill="#442F24"/>
<path d="M60.1963 53.2347V52.6126H60.6782V53.2347H60.1963ZM60.1963 56.4708V53.6794H60.6782V56.4708H60.1963Z" fill="#442F24"/>
<path d="M62.5414 56.5323C62.2858 56.5357 62.034 56.4706 61.8121 56.3436C61.596 56.2195 61.4173 56.0398 61.2944 55.823C61.164 55.5946 61.0978 55.3352 61.1028 55.0723C61.0981 54.8115 61.1633 54.5543 61.2916 54.3272C61.4146 54.1124 61.5922 53.9338 61.8064 53.8096C62.0296 53.6806 62.2836 53.6144 62.5414 53.6179C62.7975 53.6143 63.0499 53.6795 63.2722 53.8067C63.4865 53.9295 63.6642 54.1072 63.787 54.3215C63.9158 54.5504 63.981 54.8097 63.9757 55.0723C63.981 55.3369 63.9127 55.5978 63.7784 55.8259C63.6524 56.0404 63.4731 56.2187 63.2579 56.3436C63.0405 56.4702 62.7929 56.5354 62.5414 56.5323ZM62.5414 56.0661C62.7067 56.0682 62.8693 56.0236 63.0105 55.9374C63.1508 55.8502 63.2649 55.7267 63.3408 55.5799C63.4238 55.4237 63.466 55.2491 63.4638 55.0723C63.4668 54.8962 63.4244 54.7224 63.3408 54.5675C63.2623 54.4241 63.1486 54.303 63.0105 54.2157C62.8701 54.1274 62.7072 54.0817 62.5414 54.0841C62.3742 54.0809 62.2097 54.1266 62.0681 54.2157C61.929 54.3032 61.814 54.4242 61.7335 54.5675C61.6487 54.722 61.6059 54.896 61.609 55.0723C61.6065 55.2493 61.6494 55.4241 61.7335 55.5799C61.8114 55.7266 61.9268 55.85 62.0681 55.9374C62.2106 56.024 62.3747 56.0686 62.5414 56.0661Z" fill="#442F24"/>
<path d="M64.3889 56.4708V53.6794H64.8608V54.2228L64.7822 54.1771C64.8465 54.0074 64.9639 53.8629 65.1168 53.7652C65.2792 53.6658 65.4671 53.6161 65.6574 53.6222C65.8449 53.6188 66.0299 53.6652 66.1936 53.7566C66.3492 53.8454 66.4781 53.9743 66.5669 54.1299C66.6618 54.2931 66.7111 54.4788 66.7099 54.6676V56.4751H66.2222V54.8191C66.2267 54.6833 66.1983 54.5484 66.1393 54.4259C66.0872 54.321 66.0057 54.2336 65.9048 54.1742C65.7983 54.113 65.6772 54.0819 65.5544 54.0841C65.4321 54.082 65.3115 54.1131 65.2055 54.1742C65.1017 54.2345 65.017 54.3227 64.9609 54.4287C64.8986 54.5497 64.8681 54.6846 64.8723 54.8206V56.4723L64.3889 56.4708Z" fill="#442F24"/>
<path d="M67.9368 56.4708V52.6097H69.2982C69.5308 52.6041 69.7615 52.653 69.9718 52.7527C70.1591 52.844 70.3161 52.9875 70.4236 53.166C70.5354 53.3576 70.5919 53.5764 70.5867 53.7981C70.5949 54.0455 70.5226 54.2888 70.3808 54.4917C70.2407 54.6827 70.0449 54.8256 69.8202 54.9007L70.7168 56.4651H70.1262L69.1838 54.792L69.5199 54.9893H68.443V56.4651L67.9368 56.4708ZM68.443 54.5288H69.3139C69.4517 54.5325 69.5883 54.502 69.7115 54.4402C69.8234 54.3837 69.9163 54.2957 69.9789 54.1871C70.0448 54.0703 70.0779 53.9379 70.0747 53.8038C70.0784 53.6688 70.0453 53.5353 69.9789 53.4177C69.9158 53.3102 69.8229 53.2233 69.7115 53.1675C69.588 53.1064 69.4516 53.076 69.3139 53.0788H68.443V54.5288Z" fill="#442F24"/>
<path d="M72.1556 56.5323C71.904 56.5363 71.6564 56.47 71.4406 56.3407C71.2308 56.2137 71.0593 56.0324 70.9443 55.8159C70.8213 55.586 70.7588 55.3286 70.7627 55.068C70.758 54.808 70.8195 54.5511 70.9415 54.3215C71.0547 54.1096 71.2226 53.9319 71.4277 53.8067C71.6357 53.6803 71.875 53.6149 72.1184 53.6179C72.3083 53.6143 72.4968 53.6523 72.6704 53.7295C72.826 53.8001 72.9653 53.9024 73.0794 54.0298C73.1919 54.1552 73.2797 54.3008 73.3382 54.4588C73.3982 54.6188 73.4287 54.7884 73.4283 54.9593C73.4309 55.0012 73.4309 55.0432 73.4283 55.0851C73.4283 55.1323 73.4168 55.1767 73.4097 55.2181H71.1216V54.8034H73.1237L72.8963 54.9893C72.9285 54.8275 72.91 54.6597 72.8434 54.5088C72.7821 54.3714 72.6829 54.2543 72.5574 54.1713C72.4295 54.0892 72.2804 54.046 72.1284 54.0469C71.9714 54.0456 71.8172 54.0887 71.6837 54.1713C71.5472 54.2568 71.4384 54.38 71.3705 54.526C71.2931 54.6971 71.2621 54.8854 71.2804 55.0723C71.2621 55.2564 71.2953 55.4421 71.3762 55.6085C71.4491 55.7574 71.5639 55.8816 71.7065 55.966C71.8486 56.0496 72.0107 56.0931 72.1756 56.0919C72.3422 56.0972 72.5066 56.0524 72.6475 55.9632C72.7743 55.8771 72.8804 55.7637 72.9578 55.6314L73.3611 55.8388C73.3022 55.9723 73.2148 56.0914 73.1051 56.1877C72.9855 56.2962 72.8469 56.3815 72.6961 56.4394C72.5238 56.5056 72.3401 56.5372 72.1556 56.5323Z" fill="#442F24"/>
<path d="M73.8444 53.2347V52.6126H74.3249V53.2347H73.8444ZM73.8444 56.4708V53.6794H74.3249V56.4708H73.8444Z" fill="#442F24"/>
<path d="M74.864 56.4709V53.6794H75.3344V54.2514L75.2672 54.1628C75.3301 53.9953 75.4468 53.8535 75.599 53.7595C75.7526 53.6641 75.9302 53.6145 76.1109 53.6165C76.3211 53.6138 76.5267 53.6774 76.6987 53.7981C76.8686 53.9122 76.9955 54.0798 77.0591 54.2743H76.9246C76.9861 54.0718 77.116 53.8969 77.2922 53.7795C77.4624 53.6691 77.6613 53.611 77.8642 53.6122C78.048 53.6094 78.2292 53.6558 78.389 53.7466C78.5453 53.8355 78.6751 53.9643 78.7651 54.1199C78.8605 54.2829 78.91 54.4687 78.9081 54.6576V56.4651H78.4205V54.8192C78.4249 54.6833 78.3965 54.5484 78.3375 54.4259C78.287 54.3231 78.2093 54.2361 78.113 54.1742C78.0124 54.1126 77.8963 54.0814 77.7784 54.0841C77.6611 54.0824 77.5456 54.1136 77.4452 54.1742C77.3456 54.2355 77.2649 54.3231 77.2121 54.4273C77.152 54.549 77.1225 54.6835 77.1263 54.8192V56.4709H76.6401V54.8192C76.6439 54.6834 76.6155 54.5486 76.5571 54.4259C76.506 54.3231 76.4279 54.2361 76.3312 54.1742C76.2311 54.1126 76.1154 54.0813 75.998 54.0841C75.8802 54.0823 75.7643 54.1135 75.6633 54.1742C75.5641 54.2359 75.4835 54.3234 75.4302 54.4273C75.3716 54.5494 75.3427 54.6837 75.3459 54.8192V56.4709H74.864Z" fill="#442F24"/>
<path d="M80.2024 56.5323C80.0353 56.5359 79.8696 56.5017 79.7176 56.4322C79.5839 56.3687 79.4702 56.2698 79.3887 56.1462C79.3088 56.0239 79.2674 55.8804 79.27 55.7344C79.2677 55.595 79.3007 55.4572 79.3658 55.3339C79.4367 55.2076 79.5405 55.1029 79.6661 55.0308C79.8249 54.9397 79.9997 54.88 80.1809 54.8549L81.2163 54.6833V55.088L80.2896 55.2424C80.1451 55.2586 80.0089 55.3185 79.8992 55.414C79.8594 55.454 79.8282 55.5016 79.8073 55.5539C79.7864 55.6062 79.7763 55.6623 79.7777 55.7186C79.7778 55.7741 79.7907 55.8288 79.8156 55.8784C79.8404 55.9281 79.8763 55.9713 79.9207 56.0046C80.0183 56.0824 80.1406 56.1225 80.2653 56.1176C80.425 56.1215 80.5829 56.083 80.7229 56.0061C80.8497 55.9342 80.9553 55.8301 81.0289 55.7043C81.1031 55.5736 81.1411 55.4256 81.1391 55.2753V54.5603C81.1413 54.4899 81.1273 54.4199 81.0983 54.3557C81.0693 54.2915 81.026 54.2348 80.9717 54.1899C80.8462 54.09 80.6887 54.0392 80.5284 54.0469C80.3765 54.0433 80.2269 54.0857 80.0994 54.1685C79.9786 54.2472 79.884 54.3603 79.8277 54.4931L79.4044 54.2857C79.4591 54.1529 79.5443 54.0348 79.6533 53.9411C79.77 53.8371 79.9047 53.7552 80.0508 53.6994C80.2028 53.6411 80.3642 53.6115 80.527 53.6122C80.7222 53.6077 80.9158 53.6493 81.0919 53.7337C81.2472 53.8086 81.3788 53.9249 81.4723 54.0698C81.5677 54.2191 81.6174 54.3931 81.6153 54.5703V56.4651H81.1448V55.936L81.232 55.9675C81.1723 56.0774 81.0916 56.1745 80.9946 56.2535C80.8897 56.3391 80.7707 56.4059 80.6428 56.4508C80.5017 56.5027 80.3527 56.5302 80.2024 56.5323Z" fill="#442F24"/>
<path d="M83.4842 57.6091C83.298 57.6114 83.1129 57.5799 82.9379 57.5162C82.7796 57.4597 82.6338 57.3727 82.5089 57.2602C82.3916 57.1548 82.2988 57.025 82.2372 56.8798L82.6877 56.6725C82.741 56.811 82.8378 56.9284 82.9637 57.0071C83.1178 57.1049 83.2975 57.1546 83.4799 57.1501C83.6278 57.1517 83.7742 57.1209 83.9089 57.06C84.0354 57.0022 84.1422 56.9088 84.2164 56.7912C84.2948 56.6621 84.3346 56.5132 84.3308 56.3621V55.7344L84.418 55.8287C84.3262 56.0108 84.181 56.1605 84.0019 56.2578C83.8188 56.3583 83.6129 56.41 83.4041 56.4079C83.1567 56.412 82.9128 56.3482 82.6991 56.2234C82.4946 56.1032 82.3266 55.9297 82.2129 55.7215C82.0943 55.5051 82.0337 55.2618 82.037 55.0151C82.0322 54.7654 82.0929 54.5189 82.2129 54.3C82.3269 54.0929 82.4943 53.9201 82.6977 53.7995C82.9102 53.6758 83.1525 53.6125 83.3984 53.6165C83.6052 53.6124 83.8096 53.6617 83.9919 53.7595C84.1679 53.855 84.3159 53.995 84.4209 54.1656L84.3494 54.2957V53.6737H84.8199V56.3464C84.8232 56.5734 84.7644 56.7969 84.6497 56.9928C84.5358 57.1825 84.3721 57.3373 84.1763 57.4404C83.9634 57.5536 83.7254 57.6116 83.4842 57.6091ZM83.4485 55.9374C83.6065 55.9395 83.7618 55.8964 83.8961 55.813C84.0288 55.7301 84.1385 55.615 84.2149 55.4784C84.2947 55.3356 84.3356 55.1743 84.3336 55.0108C84.3349 54.8477 84.2941 54.6871 84.2149 54.5446C84.1389 54.4073 84.0292 54.2916 83.8961 54.2085C83.7618 54.1252 83.6065 54.082 83.4485 54.0841C83.2864 54.0821 83.127 54.1252 82.988 54.2085C82.852 54.2887 82.7399 54.4037 82.6634 54.5417C82.5851 54.6855 82.5452 54.8471 82.5475 55.0108C82.5452 55.174 82.5851 55.3351 82.6634 55.4784C82.7392 55.6164 82.8502 55.7318 82.9851 55.813C83.1249 55.897 83.2854 55.9402 83.4485 55.9374Z" fill="#442F24"/>
<path d="M85.3589 53.2347V52.6126H85.8408V53.2347H85.3589ZM85.3589 56.4708V53.6794H85.8408V56.4708H85.3589Z" fill="#442F24"/>
<path d="M86.3787 56.4708V53.6794H86.8506V54.2228L86.7719 54.1771C86.8357 54.007 86.9532 53.8625 87.1065 53.7652C87.2689 53.6658 87.4568 53.6161 87.6471 53.6222C87.8346 53.6188 88.0197 53.6652 88.1834 53.7566C88.3389 53.8454 88.4678 53.9743 88.5566 54.1299C88.6509 54.2933 88.7002 54.4789 88.6996 54.6676V56.4751H88.212V54.8191C88.2155 54.6841 88.1866 54.5502 88.1276 54.4287C88.0755 54.3239 87.994 54.2364 87.8931 54.1771C87.7866 54.1159 87.6655 54.0848 87.5427 54.087C87.4204 54.0846 87.2997 54.1158 87.1938 54.1771C87.091 54.2371 87.0073 54.3248 86.9521 54.4302C86.8909 54.5515 86.8609 54.6862 86.8649 54.822V56.4737L86.3787 56.4708Z" fill="#442F24"/>
<path d="M90.4584 56.5323C90.2069 56.5363 89.9592 56.47 89.7434 56.3407C89.5336 56.2134 89.3617 56.0322 89.2457 55.8159C89.1238 55.5857 89.0618 55.3285 89.0656 55.068C89.0604 54.8081 89.1214 54.5512 89.2429 54.3215C89.3571 54.1098 89.5253 53.9322 89.7305 53.8067C89.9382 53.6797 90.1778 53.6142 90.4212 53.6179C90.6112 53.6143 90.7996 53.6523 90.9732 53.7295C91.1287 53.8005 91.2679 53.9027 91.3822 54.0298C91.4942 54.1556 91.5819 54.301 91.641 54.4588C91.701 54.6188 91.7316 54.7884 91.7311 54.9593C91.7311 54.9965 91.7311 55.0394 91.724 55.0851C91.7168 55.1309 91.7125 55.1767 91.7054 55.2181H89.4173V54.8034H91.4194L91.1906 54.9893C91.224 54.8277 91.206 54.6597 91.1391 54.5088C91.0781 54.3712 90.9788 54.2541 90.8531 54.1713C90.7253 54.0888 90.5762 54.0456 90.4241 54.0469C90.2671 54.0456 90.1129 54.0887 89.9793 54.1713C89.8429 54.2568 89.7341 54.38 89.6662 54.526C89.589 54.6971 89.5575 54.8853 89.5746 55.0723C89.5578 55.2564 89.5909 55.4416 89.6705 55.6085C89.7441 55.7573 89.8594 55.8815 90.0022 55.966C90.1442 56.0499 90.3064 56.0934 90.4713 56.0919C90.6375 56.0975 90.8015 56.0526 90.9418 55.9632C91.069 55.8775 91.1751 55.764 91.2521 55.6314L91.6568 55.8388C91.5969 55.9718 91.5097 56.0907 91.4008 56.1877C91.281 56.2959 91.1424 56.3812 90.9918 56.4394C90.8217 56.5046 90.6405 56.5362 90.4584 56.5323Z" fill="#442F24"/>
<path d="M93.4187 56.5323C93.1698 56.5364 92.9249 56.47 92.7122 56.3407C92.504 56.2136 92.3333 56.0334 92.2174 55.8187C92.0957 55.591 92.0337 55.3362 92.0372 55.078C92.0325 54.8174 92.0945 54.5599 92.2174 54.3301C92.3333 54.1158 92.5041 53.9361 92.7122 53.8095C92.9252 53.6809 93.1699 53.6145 93.4187 53.6179C93.6329 53.6122 93.8451 53.6614 94.035 53.7609C94.2105 53.8528 94.3585 53.9895 94.464 54.157L94.3868 54.2757V52.5511H94.873V56.4708H94.4025V55.8745L94.464 55.9575C94.3688 56.1414 94.219 56.2913 94.035 56.3865C93.8451 56.4861 93.6331 56.5363 93.4187 56.5323ZM93.4601 56.0661C93.6265 56.069 93.7902 56.0243 93.932 55.9374C94.0708 55.8501 94.1843 55.7278 94.261 55.5828C94.3428 55.4272 94.3845 55.2537 94.3825 55.078C94.3851 54.9004 94.3433 54.7249 94.261 54.5675C94.1838 54.4228 94.0705 54.3006 93.932 54.2128C93.7902 54.1259 93.6265 54.0813 93.4601 54.0841C93.2948 54.082 93.1325 54.1277 92.9925 54.2157C92.8541 54.3023 92.7407 54.4235 92.6636 54.5675C92.5816 54.7249 92.5407 54.9005 92.5449 55.078C92.5419 55.2535 92.5827 55.427 92.6636 55.5828C92.738 55.7285 92.8507 55.8511 92.9896 55.9374C93.1298 56.0235 93.2914 56.0681 93.4558 56.0661H93.4601Z" fill="#442F24"/>
<path d="M39.1144 38.1392H38.8326V57.8608H39.1144V38.1392Z" fill="#442F24"/>
<path d="M36.3459 51.6144H34.0936V57.0457H36.3459V51.6144Z" fill="#442F24"/>
<path d="M36.3145 48.7744H25.4805H23.2282V51.0281V51.6144H16.4498V48.7744H14.1961V51.6144H12.3957V48.7744H10.142V51.6144H8.20569V48.7744H5.95338V51.6144V53.8667V54.9021H2.95174V48.7744H0.697998V54.9021V57.1544H2.95174H5.95338H8.20569V53.8667H23.2282H25.4805V51.6144V51.0281H36.3145V48.7744Z" fill="#442F24"/>
<path d="M34.0951 45.747H31.6225V42.0861H25.1287V45.747H22.4775V40.5131H20.2237V45.747H16.8217V40.5131H14.5679V45.747H12.0725V42.0861H5.58014V45.747H0.697998V48.0007H36.3474V42.0861H34.0951V45.747ZM9.82021 45.747H7.83245V44.3384H9.82021V45.747ZM29.3688 45.747H27.3825V44.3384H29.3688V45.747Z" fill="#442F24"/>
<path d="M33.4244 38.9529H31.1721V41.2052H33.4244V38.9529Z" fill="#442F24"/>
<path d="M36.3459 38.9529H34.0936V41.2052H36.3459V38.9529Z" fill="#442F24"/>
<path d="M19.5802 48.7744H17.3279V51.0267H19.5802V48.7744Z" fill="#442F24"/>
<path d="M22.5017 48.7744H20.2494V51.0267H22.5017V48.7744Z" fill="#442F24"/>
<path d="M33.4931 53.8725V51.6144H28.1433H26.074V53.8725V54.7863H8.83496V57.0457H33.4931V54.7863H28.1433V53.8725H33.4931Z" fill="#442F24"/>
</g>
<defs>
<clipPath id="clip0_6358_32025">
<rect width="94.604" height="19.7216" fill="white" transform="translate(0.697998 38.1392)"/>
</clipPath>
</defs>
</svg>
