<svg width="82" height="42" viewBox="0 0 82 42" fill="none" xmlns="http://www.w3.org/2000/svg">
<path d="M81.4088 22.5664H56.6456H51.4975V27.7443V29.0913H36.0041V22.5664H30.8527V29.0913H26.7375V22.5664H21.5861V29.0913H17.1604V22.5664H12.0123V29.0913V34.2659V36.6446H5.15138V22.5664H0V36.6446V41.8192H5.15138H12.0123H17.1604V34.2659H51.4975H56.6456V29.0913V27.7443H81.4088V22.5664Z" fill="#442F24"/>
<path d="M76.3359 15.6107H70.6844V7.19994H55.8415V15.6107H49.7815V3.58594H44.6301V15.6107H36.854V3.58594H31.7026V15.6107H25.9988V7.19994H11.1592V15.6107H0V20.7886H81.484V7.19994H76.3359V15.6107ZM20.8507 15.6107H16.3073V12.3745H20.8507V15.6107ZM65.533 15.6107H60.9929V12.3745H65.533V15.6107Z" fill="#442F24"/>
<path d="M74.803 0H69.6549V5.17459H74.803V0Z" fill="#442F24"/>
<path d="M81.4809 0H76.3328V5.17459H81.4809V0Z" fill="#442F24"/>
<path d="M43.1591 22.5664H38.011V27.741H43.1591V22.5664Z" fill="#442F24"/>
<path d="M49.8368 22.5664H44.6887V27.741H49.8368V22.5664Z" fill="#442F24"/>
</svg>
